<svg width="386" height="480" viewBox="0 0 386 480" fill="none" xmlns="http://www.w3.org/2000/svg">
<rect width="386" height="480" rx="32" fill="url(#paint0_radial_218_86688)"/>
<path opacity="0.3" fill-rule="evenodd" clip-rule="evenodd" d="M182 231C173.163 231 166 238.163 166 247V279C166 287.837 173.163 295 182 295H331C339.837 295 347 287.837 347 279V277.599C350.147 279.095 355.151 279.414 360.063 277.844C361.683 277.326 361.588 275.163 360.096 274.348C354.52 271.301 349.439 266.222 347 258.5V247C347 238.163 339.837 231 331 231H182Z" fill="white"/>
<path opacity="0.2" fill-rule="evenodd" clip-rule="evenodd" d="M270 311C278.837 311 286 318.163 286 327V359C286 367.837 278.837 375 270 375H54C45.1634 375 38 367.837 38 359V357.712C34.8422 359.11 29.9697 359.373 25.1834 357.844C23.5638 357.326 23.6586 355.163 25.1507 354.348C30.545 351.401 35.4764 346.551 38 339.247V327C38 318.163 45.1634 311 54 311H270Z" fill="white"/>
<path opacity="0.1" fill-rule="evenodd" clip-rule="evenodd" d="M252 391C243.163 391 236 398.163 236 407V439C236 447.837 243.163 455 252 455H331C339.837 455 347 447.837 347 439V437.599C350.147 439.095 355.151 439.414 360.063 437.844C361.683 437.326 361.588 435.163 360.096 434.348C354.52 431.301 349.439 426.222 347 418.5V407C347 398.163 339.837 391 331 391H252Z" fill="url(#paint1_linear_218_86688)"/>
<g opacity="0.9" filter="url(#filter0_d_218_86688)">
<path fill-rule="evenodd" clip-rule="evenodd" d="M235.873 268.999C263.352 268.848 285.582 246.524 285.582 219.009C285.582 194.149 267.435 173.527 243.665 169.667C239.169 145.941 218.325 128 193.291 128C164.974 128 142.018 150.956 142.018 179.273C142.018 181.888 142.214 184.458 142.592 186.968C142.401 186.965 142.21 186.964 142.018 186.964C119.364 186.964 101 205.328 101 227.982C101 250.636 119.364 269 142.018 269H235.591H235.873V268.999Z" fill="white"/>
</g>
<path d="M193.128 235.18V210.269" stroke="#259DFD" stroke-width="12" stroke-linecap="round" stroke-linejoin="round"/>
<path d="M208 219.192L193.5 204.321L179 219.192" stroke="#259DFD" stroke-width="12" stroke-linecap="round" stroke-linejoin="round"/>
<defs>
<filter id="filter0_d_218_86688" x="77" y="112" width="232.582" height="189" filterUnits="userSpaceOnUse" color-interpolation-filters="sRGB">
<feFlood flood-opacity="0" result="BackgroundImageFix"/>
<feColorMatrix in="SourceAlpha" type="matrix" values="0 0 0 0 0 0 0 0 0 0 0 0 0 0 0 0 0 0 127 0" result="hardAlpha"/>
<feOffset dy="8"/>
<feGaussianBlur stdDeviation="12"/>
<feComposite in2="hardAlpha" operator="out"/>
<feColorMatrix type="matrix" values="0 0 0 0 0.03 0 0 0 0 0.153067 0 0 0 0 0.266667 0 0 0 0.1 0"/>
<feBlend mode="normal" in2="BackgroundImageFix" result="effect1_dropShadow_218_86688"/>
<feBlend mode="normal" in="SourceGraphic" in2="effect1_dropShadow_218_86688" result="shape"/>
</filter>
<radialGradient id="paint0_radial_218_86688" cx="0" cy="0" r="1" gradientUnits="userSpaceOnUse" gradientTransform="translate(42.5 6.54046e-06) rotate(72.5916) scale(503.041 527.649)">
<stop stop-color="#36B3FF"/>
<stop offset="1" stop-color="#0979F9"/>
</radialGradient>
<linearGradient id="paint1_linear_218_86688" x1="298.623" y1="391" x2="298.623" y2="455" gradientUnits="userSpaceOnUse">
<stop stop-color="white"/>
<stop offset="1" stop-color="white" stop-opacity="0"/>
</linearGradient>
</defs>
</svg>
