<svg width="87" height="25" viewBox="0 0 87 25" fill="none" xmlns="http://www.w3.org/2000/svg">
<path d="M40.278 19V6.994H43.248L47.37 12.736L45.786 12.79L50.052 6.994H52.95V19H50.034V9.19L50.61 10.126L46.506 15.58L42.438 10.036L43.068 9.604V19H40.278ZM55.4647 19V10.018H58.1467L58.1647 19H55.4647ZM55.4107 8.65V6.58H58.1827V8.65H55.4107ZM65.061 15.364L62.577 19H59.751L63.837 13.654L65.061 15.364ZM69.525 19H66.339L59.841 9.892H63.009L69.525 19ZM64.269 13.618L66.825 9.892H69.669L65.493 15.364L64.269 13.618ZM71.3025 19V10.018H73.9845L74.0025 19H71.3025ZM71.2485 8.65V6.58H74.0205V8.65H71.2485ZM76.3989 10.666C76.6269 10.546 76.9269 10.426 77.2989 10.306C77.6709 10.174 78.0789 10.06 78.5229 9.964C78.9669 9.868 79.4109 9.79 79.8549 9.73C80.3109 9.67 80.7309 9.64 81.1149 9.64C81.9309 9.64 82.6269 9.748 83.2029 9.964C83.7789 10.168 84.2169 10.504 84.5169 10.972C84.8289 11.44 84.9849 12.076 84.9849 12.88V19H82.3029V13.42C82.3029 13.192 82.2669 12.982 82.1949 12.79C82.1349 12.598 82.0389 12.436 81.9069 12.304C81.7749 12.16 81.5949 12.052 81.3669 11.98C81.1389 11.896 80.8629 11.854 80.5389 11.854C80.2629 11.854 79.9869 11.89 79.7109 11.962C79.4349 12.022 79.2249 12.088 79.0809 12.16V19H76.3989V10.666Z" fill="black"/>
<path d="M27.3482 1.06671L22.7093 3.19107C22.4281 3.34941 22.262 3.65289 22.262 3.96956V21.0964C22.262 21.4263 22.4409 21.7298 22.722 21.8749L27.361 23.9465C27.655 24.1048 28 23.8937 28 23.5506V1.46255C27.9872 1.11949 27.6294 0.908369 27.3482 1.06671ZM5.13738 3.16468L0.638978 1.05351C0.345048 0.895175 0 1.10629 0 1.44936V23.5374C0 23.8937 0.383386 24.1048 0.664537 23.9201L5.1885 21.4527C5.44409 21.2943 5.59744 21.004 5.59744 20.7006V3.94317C5.58467 3.6265 5.41853 3.32302 5.13738 3.16468ZM19.246 9.00998L14.4026 6.1467C14.1342 5.98837 13.8019 5.98837 13.5463 6.1467L8.61342 8.98359C8.34505 9.14192 8.17891 9.4454 8.17891 9.76208V15.5678C8.17891 15.8845 8.34505 16.1879 8.61342 16.3463L13.5463 19.2755C13.8147 19.4339 14.147 19.4339 14.4026 19.2755L19.246 16.3727C19.5144 16.2143 19.6805 15.9109 19.6805 15.5942V9.78847C19.6805 9.4586 19.5144 9.16831 19.246 9.00998Z" fill="black"/>
</svg>
