<svg width="22" height="18" viewBox="0 0 22 18" fill="none" xmlns="http://www.w3.org/2000/svg">
<path d="M21.4879 0.0522055L17.843 1.71475C17.6221 1.83867 17.4916 2.07617 17.4916 2.32401V15.7276C17.4916 15.9858 17.6321 16.2233 17.853 16.3369L21.4979 17.9581C21.7289 18.082 22 17.9168 22 17.6483V0.361996C21.99 0.093511 21.7088 -0.0717109 21.4879 0.0522055ZM4.03651 1.6941L0.502054 0.0418793C0.271109 -0.0820371 0 0.0831847 0 0.35167V17.638C0 17.9168 0.301232 18.082 0.522136 17.9375L4.07668 16.0064C4.2775 15.8825 4.39799 15.6553 4.39799 15.4178V2.30335C4.38795 2.05552 4.25742 1.81801 4.03651 1.6941ZM15.1219 6.26868L11.3163 4.02786C11.1054 3.90394 10.8444 3.90394 10.6435 4.02786L6.76769 6.24802C6.55682 6.37194 6.42629 6.60945 6.42629 6.85728V11.4009C6.42629 11.6487 6.55682 11.8862 6.76769 12.0101L10.6435 14.3026C10.8544 14.4265 11.1155 14.4265 11.3163 14.3026L15.1219 12.0308C15.3327 11.9069 15.4633 11.6694 15.4633 11.4215V6.87793C15.4633 6.61977 15.3327 6.39259 15.1219 6.26868Z" fill="black"/>
</svg>
