<svg width="614" height="405" viewBox="0 0 614 405" fill="none" xmlns="http://www.w3.org/2000/svg">
<g clip-path="url(#clip0_612_3322)">
<path d="M0 0H614V373C614 390.673 599.673 405 582 405H32C14.3269 405 0 390.673 0 373V0Z" fill="url(#paint0_linear_612_3322)"/>
<g filter="url(#filter0_if_612_3322)">
<path d="M628.35 186.652C400.897 65.5146 97.6024 365.816 -262.508 -103.959L-236.62 673.926L503.64 737.62C697.966 710.478 1084.58 610.826 1076.41 429.354C1066.2 202.513 855.804 307.79 628.35 186.652Z" fill="url(#paint1_linear_612_3322)"/>
</g>
<g filter="url(#filter1_f_612_3322)">
<ellipse cx="242.396" cy="183.696" rx="279.737" ry="80.3157" transform="rotate(22.1094 242.396 183.696)" fill="#835FE8"/>
</g>
<rect x="103" y="122" width="142" height="80" rx="40" fill="white" fill-opacity="0.3"/>
<path d="M136.522 166.152V162.888H144.73V166.152H136.522ZM149.094 156.72H145.062V153.24H152.814V171H149.094V156.72ZM155.587 162.168C155.587 160.328 155.907 158.72 156.547 157.344C157.203 155.952 158.115 154.864 159.283 154.08C160.451 153.296 161.803 152.904 163.339 152.904C164.891 152.904 166.243 153.296 167.395 154.08C168.563 154.864 169.467 155.952 170.107 157.344C170.763 158.72 171.091 160.328 171.091 162.168C171.091 163.992 170.779 165.592 170.155 166.968C169.547 168.344 168.667 169.416 167.515 170.184C166.363 170.936 164.971 171.312 163.339 171.312C161.723 171.312 160.331 170.936 159.163 170.184C158.011 169.416 157.123 168.344 156.499 166.968C155.891 165.592 155.587 163.992 155.587 162.168ZM159.427 162.168C159.427 163.432 159.579 164.496 159.883 165.36C160.203 166.208 160.651 166.848 161.227 167.28C161.819 167.696 162.523 167.904 163.339 167.904C164.171 167.904 164.875 167.696 165.451 167.28C166.027 166.848 166.467 166.208 166.771 165.36C167.091 164.496 167.251 163.432 167.251 162.168C167.251 160.856 167.091 159.768 166.771 158.904C166.467 158.04 166.027 157.392 165.451 156.96C164.875 156.528 164.171 156.312 163.339 156.312C162.523 156.312 161.819 156.528 161.227 156.96C160.651 157.392 160.203 158.04 159.883 158.904C159.579 159.768 159.427 160.856 159.427 162.168ZM172.813 162.168C172.813 160.328 173.133 158.72 173.773 157.344C174.429 155.952 175.341 154.864 176.509 154.08C177.677 153.296 179.029 152.904 180.565 152.904C182.117 152.904 183.469 153.296 184.621 154.08C185.789 154.864 186.693 155.952 187.333 157.344C187.989 158.72 188.317 160.328 188.317 162.168C188.317 163.992 188.005 165.592 187.381 166.968C186.773 168.344 185.893 169.416 184.741 170.184C183.589 170.936 182.197 171.312 180.565 171.312C178.949 171.312 177.557 170.936 176.389 170.184C175.237 169.416 174.349 168.344 173.725 166.968C173.117 165.592 172.813 163.992 172.813 162.168ZM176.653 162.168C176.653 163.432 176.805 164.496 177.109 165.36C177.429 166.208 177.877 166.848 178.453 167.28C179.045 167.696 179.749 167.904 180.565 167.904C181.397 167.904 182.101 167.696 182.677 167.28C183.253 166.848 183.693 166.208 183.997 165.36C184.317 164.496 184.477 163.432 184.477 162.168C184.477 160.856 184.317 159.768 183.997 158.904C183.693 158.04 183.253 157.392 182.677 156.96C182.101 156.528 181.397 156.312 180.565 156.312C179.749 156.312 179.045 156.528 178.453 156.96C177.877 157.392 177.429 158.04 177.109 158.904C176.805 159.768 176.653 160.856 176.653 162.168ZM199.4 157.728C199.4 158.672 199.192 159.512 198.776 160.248C198.376 160.968 197.816 161.536 197.096 161.952C196.376 162.352 195.544 162.552 194.6 162.552C193.672 162.552 192.84 162.352 192.104 161.952C191.384 161.536 190.816 160.968 190.4 160.248C190 159.512 189.8 158.672 189.8 157.728C189.8 156.784 190 155.952 190.4 155.232C190.816 154.496 191.384 153.928 192.104 153.528C192.84 153.112 193.672 152.904 194.6 152.904C195.544 152.904 196.376 153.112 197.096 153.528C197.816 153.928 198.376 154.496 198.776 155.232C199.192 155.952 199.4 156.784 199.4 157.728ZM196.52 157.728C196.52 157.12 196.344 156.632 195.992 156.264C195.64 155.88 195.176 155.688 194.6 155.688C194.024 155.688 193.56 155.88 193.208 156.264C192.856 156.632 192.68 157.12 192.68 157.728C192.68 158.32 192.856 158.808 193.208 159.192C193.56 159.576 194.024 159.768 194.6 159.768C195.176 159.768 195.64 159.576 195.992 159.192C196.344 158.808 196.52 158.32 196.52 157.728ZM209.576 153.288L196.088 171H192.464L205.952 153.288H209.576ZM212.288 166.488C212.288 167.432 212.08 168.272 211.664 169.008C211.264 169.728 210.704 170.296 209.984 170.712C209.264 171.112 208.432 171.312 207.488 171.312C206.56 171.312 205.728 171.112 204.992 170.712C204.272 170.296 203.704 169.728 203.288 169.008C202.888 168.272 202.688 167.432 202.688 166.488C202.688 165.544 202.888 164.712 203.288 163.992C203.704 163.256 204.272 162.688 204.992 162.288C205.728 161.872 206.56 161.664 207.488 161.664C208.432 161.664 209.264 161.872 209.984 162.288C210.704 162.688 211.264 163.256 211.664 163.992C212.08 164.712 212.288 165.544 212.288 166.488ZM209.408 166.488C209.408 165.88 209.232 165.392 208.88 165.024C208.528 164.64 208.064 164.448 207.488 164.448C206.912 164.448 206.448 164.64 206.096 165.024C205.744 165.392 205.568 165.88 205.568 166.488C205.568 167.08 205.744 167.568 206.096 167.952C206.448 168.336 206.912 168.528 207.488 168.528C208.064 168.528 208.528 168.336 208.88 167.952C209.232 167.568 209.408 167.08 209.408 166.488Z" fill="white"/>
<rect x="362" y="122" width="149" height="80" rx="40" fill="white"/>
<path d="M403.698 156.912V168.936H400.626V156.912H403.698ZM396.162 161.376H408.162V164.448H396.162V161.376ZM414.934 156.72H410.902V153.24H418.654V171H414.934V156.72ZM421.427 162.168C421.427 160.328 421.747 158.72 422.387 157.344C423.043 155.952 423.955 154.864 425.123 154.08C426.291 153.296 427.643 152.904 429.179 152.904C430.731 152.904 432.083 153.296 433.234 154.08C434.403 154.864 435.307 155.952 435.947 157.344C436.603 158.72 436.931 160.328 436.931 162.168C436.931 163.992 436.619 165.592 435.995 166.968C435.387 168.344 434.507 169.416 433.355 170.184C432.203 170.936 430.811 171.312 429.179 171.312C427.563 171.312 426.171 170.936 425.003 170.184C423.851 169.416 422.963 168.344 422.339 166.968C421.731 165.592 421.427 163.992 421.427 162.168ZM425.267 162.168C425.267 163.432 425.419 164.496 425.723 165.36C426.043 166.208 426.491 166.848 427.067 167.28C427.659 167.696 428.363 167.904 429.179 167.904C430.011 167.904 430.715 167.696 431.291 167.28C431.867 166.848 432.307 166.208 432.611 165.36C432.931 164.496 433.091 163.432 433.091 162.168C433.091 160.856 432.931 159.768 432.611 158.904C432.307 158.04 431.867 157.392 431.291 156.96C430.715 156.528 430.011 156.312 429.179 156.312C428.363 156.312 427.659 156.528 427.067 156.96C426.491 157.392 426.043 158.04 425.723 158.904C425.419 159.768 425.267 160.856 425.267 162.168ZM438.653 162.168C438.653 160.328 438.973 158.72 439.613 157.344C440.269 155.952 441.181 154.864 442.349 154.08C443.517 153.296 444.869 152.904 446.405 152.904C447.957 152.904 449.309 153.296 450.461 154.08C451.629 154.864 452.533 155.952 453.173 157.344C453.829 158.72 454.157 160.328 454.157 162.168C454.157 163.992 453.845 165.592 453.221 166.968C452.613 168.344 451.733 169.416 450.581 170.184C449.429 170.936 448.037 171.312 446.405 171.312C444.789 171.312 443.397 170.936 442.229 170.184C441.077 169.416 440.189 168.344 439.565 166.968C438.957 165.592 438.653 163.992 438.653 162.168ZM442.493 162.168C442.493 163.432 442.645 164.496 442.949 165.36C443.269 166.208 443.717 166.848 444.293 167.28C444.885 167.696 445.589 167.904 446.405 167.904C447.237 167.904 447.941 167.696 448.517 167.28C449.093 166.848 449.533 166.208 449.837 165.36C450.157 164.496 450.317 163.432 450.317 162.168C450.317 160.856 450.157 159.768 449.837 158.904C449.533 158.04 449.093 157.392 448.517 156.96C447.941 156.528 447.237 156.312 446.405 156.312C445.589 156.312 444.885 156.528 444.293 156.96C443.717 157.392 443.269 158.04 442.949 158.904C442.645 159.768 442.493 160.856 442.493 162.168ZM465.24 157.728C465.24 158.672 465.032 159.512 464.616 160.248C464.216 160.968 463.656 161.536 462.936 161.952C462.216 162.352 461.384 162.552 460.44 162.552C459.512 162.552 458.68 162.352 457.944 161.952C457.224 161.536 456.656 160.968 456.24 160.248C455.84 159.512 455.64 158.672 455.64 157.728C455.64 156.784 455.84 155.952 456.24 155.232C456.656 154.496 457.224 153.928 457.944 153.528C458.68 153.112 459.512 152.904 460.44 152.904C461.384 152.904 462.216 153.112 462.936 153.528C463.656 153.928 464.216 154.496 464.616 155.232C465.032 155.952 465.24 156.784 465.24 157.728ZM462.36 157.728C462.36 157.12 462.184 156.632 461.832 156.264C461.48 155.88 461.016 155.688 460.44 155.688C459.864 155.688 459.4 155.88 459.048 156.264C458.696 156.632 458.52 157.12 458.52 157.728C458.52 158.32 458.696 158.808 459.048 159.192C459.4 159.576 459.864 159.768 460.44 159.768C461.016 159.768 461.48 159.576 461.832 159.192C462.184 158.808 462.36 158.32 462.36 157.728ZM475.416 153.288L461.928 171H458.304L471.792 153.288H475.416ZM478.128 166.488C478.128 167.432 477.92 168.272 477.504 169.008C477.104 169.728 476.544 170.296 475.824 170.712C475.104 171.112 474.272 171.312 473.328 171.312C472.4 171.312 471.568 171.112 470.832 170.712C470.112 170.296 469.544 169.728 469.128 169.008C468.728 168.272 468.528 167.432 468.528 166.488C468.528 165.544 468.728 164.712 469.128 163.992C469.544 163.256 470.112 162.688 470.832 162.288C471.568 161.872 472.4 161.664 473.328 161.664C474.272 161.664 475.104 161.872 475.824 162.288C476.544 162.688 477.104 163.256 477.504 163.992C477.92 164.712 478.128 165.544 478.128 166.488ZM475.248 166.488C475.248 165.88 475.072 165.392 474.72 165.024C474.368 164.64 473.904 164.448 473.328 164.448C472.752 164.448 472.288 164.64 471.936 165.024C471.584 165.392 471.408 165.88 471.408 166.488C471.408 167.08 471.584 167.568 471.936 167.952C472.288 168.336 472.752 168.528 473.328 168.528C473.904 168.528 474.368 168.336 474.72 167.952C475.072 167.568 475.248 167.08 475.248 166.488Z" fill="black"/>
<g opacity="0.3">
<path d="M314 175.5H294" stroke="white" stroke-width="8" stroke-linecap="round"/>
<path d="M299 169L293 175.5L299 182" stroke="white" stroke-width="8" stroke-linecap="round" stroke-linejoin="round"/>
</g>
<path d="M293 152.5H313" stroke="white" stroke-width="8" stroke-linecap="round"/>
<path d="M308 146L314 152.5L308 159" stroke="white" stroke-width="8" stroke-linecap="round" stroke-linejoin="round"/>
<path d="M135 234C135 229.582 138.582 226 143 226L183 226C193.493 226 202 234.507 202 245L202 265C202 275.493 193.493 284 183 284L143 284C138.582 284 135 280.418 135 276L135 234Z" fill="white" fill-opacity="0.3"/>
<path fill-rule="evenodd" clip-rule="evenodd" d="M190 245C184.477 245 180 249.477 180 255C180 260.523 184.477 265 190 265L201.842 265C203.586 265 205 263.586 205 261.842L205 248.158C205 246.414 203.586 245 201.842 245L190 245ZM190 258C191.657 258 193 256.657 193 255C193 253.343 191.657 252 190 252C188.343 252 187 253.343 187 255C187 256.657 188.343 258 190 258Z" fill="white"/>
<path d="M471 234C471 229.582 467.418 226 463 226L423 226C412.507 226 404 234.507 404 245L404 265C404 275.493 412.507 284 423 284L463 284C467.418 284 471 280.418 471 276L471 234Z" fill="white" fill-opacity="0.3"/>
<path fill-rule="evenodd" clip-rule="evenodd" d="M416 245C421.523 245 426 249.477 426 255C426 260.523 421.523 265 416 265L404.158 265C402.414 265 401 263.586 401 261.842L401 248.158C401 246.414 402.414 245 404.158 245L416 245ZM416 258C414.343 258 413 256.657 413 255C413 253.343 414.343 252 416 252C417.657 252 419 253.343 419 255C419 256.657 417.657 258 416 258Z" fill="white"/>
</g>
<defs>
<filter id="filter0_if_612_3322" x="-339.426" y="-124.959" width="1436.96" height="931.579" filterUnits="userSpaceOnUse" color-interpolation-filters="sRGB">
<feFlood flood-opacity="0" result="BackgroundImageFix"/>
<feBlend mode="normal" in="SourceGraphic" in2="BackgroundImageFix" result="shape"/>
<feColorMatrix in="SourceAlpha" type="matrix" values="0 0 0 0 0 0 0 0 0 0 0 0 0 0 0 0 0 0 127 0" result="hardAlpha"/>
<feOffset dx="-79" dy="69"/>
<feGaussianBlur stdDeviation="38.459"/>
<feComposite in2="hardAlpha" operator="arithmetic" k2="-1" k3="1"/>
<feColorMatrix type="matrix" values="0 0 0 0 0.843389 0 0 0 0 0.456944 0 0 0 0 0.979167 0 0 0 1 0"/>
<feBlend mode="normal" in2="shape" result="effect1_innerShadow_612_3322"/>
<feGaussianBlur stdDeviation="10.5" result="effect2_foregroundBlur_612_3322"/>
</filter>
<filter id="filter1_f_612_3322" x="-194.553" y="-121.241" width="873.898" height="609.874" filterUnits="userSpaceOnUse" color-interpolation-filters="sRGB">
<feFlood flood-opacity="0" result="BackgroundImageFix"/>
<feBlend mode="normal" in="SourceGraphic" in2="BackgroundImageFix" result="shape"/>
<feGaussianBlur stdDeviation="88" result="effect1_foregroundBlur_612_3322"/>
</filter>
<linearGradient id="paint0_linear_612_3322" x1="307" y1="0" x2="307" y2="405" gradientUnits="userSpaceOnUse">
<stop stop-color="#7E57E7"/>
<stop offset="1" stop-color="#9676EE"/>
</linearGradient>
<linearGradient id="paint1_linear_612_3322" x1="-20" y1="149" x2="484.362" y2="463.722" gradientUnits="userSpaceOnUse">
<stop stop-color="#4081FF"/>
<stop offset="1" stop-color="#9675ED"/>
</linearGradient>
<clipPath id="clip0_612_3322">
<path d="M0 0H614V373C614 390.673 599.673 405 582 405H32C14.3269 405 0 390.673 0 373V0Z" fill="white"/>
</clipPath>
</defs>
</svg>
