<svg width="530" height="326" viewBox="0 0 530 326" fill="none" xmlns="http://www.w3.org/2000/svg">
<g clip-path="url(#clip0_352_34329)">
<circle cx="264.818" cy="266.578" r="184.818" fill="url(#paint0_radial_352_34329)"/>
<circle cx="264.818" cy="266.578" r="184.818" fill="url(#paint1_radial_352_34329)"/>
<circle cx="264.818" cy="266.578" r="184.818" fill="url(#paint2_radial_352_34329)"/>
<circle cx="264.818" cy="266.578" r="184.818" fill="url(#paint3_radial_352_34329)"/>
<circle cx="264.818" cy="266.578" r="184.818" fill="url(#paint4_radial_352_34329)"/>
<path fill-rule="evenodd" clip-rule="evenodd" d="M429.968 183.521L429.749 183.767V192.008L433.372 191.507L433.761 191.522C434.969 194.239 436.114 196.989 437.194 199.773L428.939 199.915L424.071 194.571L423.136 185.98L418.151 188.701L415.471 199.205L408.273 191.54L407.981 184.301L401.034 178.315L398.454 175.76H390.388L392.943 182.949L402.645 188.359L404.332 190.146L402.236 191.198L402.336 196.892L397.61 198.863L393.577 197.978L391.056 194.404L397.61 194.755L399.389 192.367L384.844 182.556L383.741 178.381L377.83 183.725L371.826 182.498L362.708 194.346L360.93 198.988L355.093 199.514L346.451 199.564L341.3 197.151L339.78 186.898L341.642 182.013L350.418 180.093L359.986 182.013L361.164 176.711L357.097 175.751L358.492 167.502L368.127 165.991L374.866 156.472L381.829 155.303L388.108 156.23H390.413L389.152 147.296L381.504 150.377L378.832 143.697L374.398 143.079L373.563 138.495L377.187 134.563L385.779 131.198L387.415 128.271C391.964 132.306 396.312 136.563 400.443 141.023L400.416 148.348L392.408 152.414L393.21 155.078L405.994 155.194L408.919 150.84C417.025 160.919 424.095 171.867 429.968 183.521ZM157.144 116.348L164.953 116.285L169.136 118.606L177.026 120.31L177.636 123.408L190.186 123.875L188.482 119.851L177.335 119.542L179.949 117.112L179.03 114.164H168.96L179.949 105.957H190.478L195.429 112.77L203.645 113.238L208.597 108.428L212.321 110.29L205.499 116.953C205.499 116.953 196.064 117.112 196.523 117.112C196.982 117.112 197.3 123.608 197.3 123.608L208.747 123.291L209.983 120.201L217.873 119.734L218.8 115.091L214.158 114.306L215.702 110.132L219.259 109.055L231.642 109.672L224.82 115.868L225.914 120.66L233.037 121.746L232.569 113.079L239.382 109.514L251.456 108.119L268.949 115.868V122.522L274.527 123.917L271.738 129.177H263.847L261.509 135.214L243.457 130.956L257.643 123.399L252.233 118.807L240 120.352L238.931 121.454L238.89 121.437L238.698 121.704L235.182 125.361L229.363 125.854L229.83 128.76L231.868 129.603L231.784 130.563L227.05 131.239L226.699 133.986L222.174 134.22L221.355 128.76L213.231 131.231L196.623 140.95L198.494 147.788L203.136 150.811L212.421 152.097V162.651L216.713 161.958L220.671 153.708L230.548 150.577V137.919L236.042 133.769L249.319 136.9L248.383 145.258H251.94L261.693 140.466L262.161 151.446L269.275 155.779L268.974 162.292L262.169 164.613L262.636 166.767L270.836 170.499L270.677 174.983L268.298 175.183L268.273 175.058L257.927 171.869L257.485 168.554H257.476L260.499 166.475V163.452L257.243 162.634L256.433 165.423L250.721 166.299L250.154 166.107V166.391L248.183 166.692L246.572 163.436L244.71 162.617H240.643L238.798 164.129V167.468L242.28 168.629L245.712 169.113L244.943 169.456L241.812 172.929L240.426 171.192L237.403 170.391L229.154 178.156L230.231 179.041L218.049 185.787L206.593 197.711L205.808 203.021L194.319 210.569L188.624 216.297L189.25 227.753L181.352 224.079L181.41 217.374L159.433 217.382L148.053 223.144L143.11 232.253L141.156 239.476L144.354 246.481L153.321 247.575L167.574 238.048L168.819 242.765L164.468 250.981L175.315 252.835L176.392 269.584L191.254 272.106L200.698 261.193L212.162 263.522L216.187 269.125L227.175 268.474L227.484 265.217L233.521 268.165L240.318 278.836L252.082 279.011L256.424 286.601L257.042 295.877L270.051 300.837L286.458 301.004L291.259 308.877L298.532 311.207L297.138 317.711L289.164 327.839L286.842 350.267L279.653 355.961L268.974 355.635L265.409 361.822L268.047 373.445L256.433 388.307L252.717 395.121L241.645 400.439L234.364 401.542L234.064 404.631L239.174 406.092L238.556 409.415L233.98 413.815L236.761 417.306L242.271 417.473L241.962 421.731L240.501 425.906L240.034 429.312L248.183 436.176L247.098 439.741L236.009 439.541L224.979 429.905L216.387 414.801L217.59 400.222L211.085 391.547L213.715 376.835L209.849 375.75V343.862C209.849 343.862 199.011 335.655 198.393 335.655C197.767 335.655 192.657 334.269 192.657 334.269L191.58 328.224L177.486 310.581L178.88 304.235L179.339 293.865L189.083 287.052L187.689 275.437L173.453 274.36L162.306 261.66L154.415 259.506L149.305 258.571L149.923 253.929L143.419 253.002V255.632L127.162 251.607L120.615 241.596L123.271 236.745L112.975 221.724L111.214 210.736H107.039L108.433 221.415L115.555 232.403L114.779 236.745L108.742 235.818L101.319 223.152V208.415L93.5788 204.691L93.5781 196.917C96.5109 189.715 99.8847 182.74 103.666 176.025L107.974 170.792L107.816 169.021C120.66 148.394 137.456 130.484 157.144 116.348ZM442.475 215.454C447.139 231.69 449.637 248.842 449.637 266.578C449.637 311.36 433.71 352.422 407.212 384.408H403.338V372.034L396.224 362.465V347.57L390.805 342.167L390.338 335.972L397.218 322.821L384.151 299.751L385.712 284.096L373.939 282.877L369.605 278.535H361.706L357.69 282.251H343.763L343.295 283.486H335.547L317.745 263.213L317.904 247.416L320.843 246.339L321.936 240.294H317.762L316.05 233.948L336.649 219.086V208.557L346.727 202.963L350.793 203.372H359.093L365.572 199.89L386.48 198.262V208.949L402.979 213.132L406.236 215.454H409.25V209.642L418.777 208.716L427.828 215.454H442.475ZM155.534 125.47V125.812L155.526 129.536H164.694L166.606 126.981V124.075H159.951L159.6 125.47H155.534ZM166.447 134.179C166.096 134.179 162.03 134.872 162.03 134.872L155.534 136.725L157.279 138.813L166.447 138.236C166.447 138.236 166.798 134.179 166.447 134.179ZM177.602 153.909L172.726 156.23L175.732 162.392L180.492 160.881L182.011 154.961L177.602 153.909ZM198.602 173.998V170.165H196.999V167.953H189.685L184.332 170.165L183.289 172.837L187.464 173.998H198.602ZM203.729 179.225V175.509H197.467V181.663L200.94 181.02L203.729 179.225ZM200.589 169.581V173.998L204.422 173.071L200.589 169.581ZM202.334 186.547V182.932L198.051 183.525L197.475 184.919L194.678 185.161L193.751 189.219H199.671L202.334 186.547ZM193.743 175.509H187.589L183.297 180.151L182.596 184.794L185.852 186.539L193.743 175.509ZM212.788 185.27V181.663L205.716 179.575H205.249V182.932L206.868 185.27H212.788ZM209.006 174.933L207.319 176.703L209.574 178.582L211.853 176.703L209.006 174.933ZM358.24 157.315L357.848 154.301L353.656 151.671L350.717 149.659V146.703L352.429 144.081L358.532 142.837L360.085 150.276L363.334 155.537L365.496 158.025L369.446 159.561L365.73 163.978L358.532 164.671H353.122L353.723 158.25L358.24 157.315ZM352.972 152.748L352.646 156.773L344.998 162.191H340.664V158.326L344.38 152.364L349.39 151.203L352.972 152.748ZM248.425 176.703L249.527 173.864L251.656 173.823L254.086 174.324L253.042 176.478L250.395 176.703L249.861 179.267L247.815 180.536L244.542 180.811C244.434 180.043 244.358 179.459 244.358 179.459H243.089V176.703H248.425ZM235.567 181.562L235.776 178.866L237.513 176.703L239.834 178.532L239.433 181.237L235.567 181.562Z" fill="url(#paint5_linear_352_34329)"/>
<g style="mix-blend-mode:soft-light">
<rect x="349" y="102" width="120" height="117" fill="url(#paint6_radial_352_34329)"/>
</g>
<g style="mix-blend-mode:overlay">
<ellipse cx="265" cy="266.5" rx="263" ry="263.5" stroke="#FFE5A4" stroke-width="2" stroke-linecap="round"/>
</g>
<g style="mix-blend-mode:overlay">
<path d="M448.8 252C554.937 242.351 438.723 202.953 296.103 199.26C153.586 195.57 -27.7071 232.122 81.3492 246.391" stroke="#FFE5A4" stroke-width="2" stroke-linecap="round"/>
</g>
<g style="mix-blend-mode:overlay">
<path d="M223.5 295.5C299.5 143.001 475.019 75.8955 415.829 161.526" stroke="#FFE5A4" stroke-width="2" stroke-linecap="round"/>
</g>
<g style="mix-blend-mode:overlay">
<path d="M341.246 412.709C419.812 476.052 392.088 328.88 312.017 222.222C232.003 115.64 85.2568 46.6042 128.966 142.963" stroke="#FFE5A4" stroke-width="2" stroke-linecap="round"/>
</g>
</g>
<defs>
<radialGradient id="paint0_radial_352_34329" cx="0" cy="0" r="1" gradientUnits="userSpaceOnUse" gradientTransform="translate(300.611 231.437) rotate(99.2423) scale(222.853)">
<stop stop-color="#30A1FC"/>
<stop offset="1" stop-color="#FF87FA"/>
</radialGradient>
<radialGradient id="paint1_radial_352_34329" cx="0" cy="0" r="1" gradientUnits="userSpaceOnUse" gradientTransform="translate(188 155.5) rotate(62.396) scale(345.306)">
<stop stop-color="#0486FE"/>
<stop offset="1" stop-color="white" stop-opacity="0"/>
</radialGradient>
<radialGradient id="paint2_radial_352_34329" cx="0" cy="0" r="1" gradientUnits="userSpaceOnUse" gradientTransform="translate(449.637 204.104) rotate(123.521) scale(122.554 147.51)">
<stop stop-color="white"/>
<stop offset="1" stop-color="white" stop-opacity="0"/>
</radialGradient>
<radialGradient id="paint3_radial_352_34329" cx="0" cy="0" r="1" gradientUnits="userSpaceOnUse" gradientTransform="translate(467.5 317) rotate(-136.631) scale(211.157 212.062)">
<stop stop-color="#FAC5EC"/>
<stop offset="1" stop-color="#FAC5EC" stop-opacity="0"/>
</radialGradient>
<radialGradient id="paint4_radial_352_34329" cx="0" cy="0" r="1" gradientUnits="userSpaceOnUse" gradientTransform="translate(276.532 240.547) rotate(106.479) scale(211.059 202.934)">
<stop offset="0.619792" stop-color="white" stop-opacity="0"/>
<stop offset="0.796875" stop-color="white" stop-opacity="0"/>
<stop offset="1" stop-color="white"/>
</radialGradient>
<linearGradient id="paint5_linear_352_34329" x1="284.5" y1="187" x2="402.5" y2="384.5" gradientUnits="userSpaceOnUse">
<stop stop-color="#DFFCFF"/>
<stop offset="0.187584" stop-color="#E2F2FF"/>
<stop offset="0.502443" stop-color="#F0DCFF"/>
<stop offset="1" stop-color="#F9D5FE"/>
</linearGradient>
<radialGradient id="paint6_radial_352_34329" cx="0" cy="0" r="1" gradientUnits="userSpaceOnUse" gradientTransform="translate(409 160.5) rotate(90) scale(58.5 60.4121)">
<stop stop-color="white"/>
<stop offset="1" stop-color="white" stop-opacity="0"/>
</radialGradient>
<clipPath id="clip0_352_34329">
<rect width="530" height="326" fill="white"/>
</clipPath>
</defs>
</svg>
