<svg width="374" height="230" viewBox="0 0 374 230" fill="none" xmlns="http://www.w3.org/2000/svg">
<g clip-path="url(#clip0_612_3067)">
<circle cx="186.835" cy="188.077" r="130.393" fill="url(#paint0_radial_612_3067)"/>
<circle cx="186.835" cy="188.077" r="130.393" fill="url(#paint1_radial_612_3067)"/>
<circle cx="186.835" cy="188.077" r="130.393" fill="url(#paint2_radial_612_3067)"/>
<circle cx="186.835" cy="188.077" r="130.393" fill="url(#paint3_radial_612_3067)"/>
<circle cx="186.835" cy="188.077" r="130.393" fill="url(#paint4_radial_612_3067)"/>
<path fill-rule="evenodd" clip-rule="evenodd" d="M303.352 129.478L303.197 129.651V135.466L305.754 135.112L306.028 135.123C306.88 137.039 307.688 138.98 308.45 140.944L302.626 141.044L299.191 137.274L298.531 131.213L295.014 133.133L293.123 140.544L288.046 135.136L287.839 130.028L282.938 125.805L281.118 124.002H275.427L277.23 129.074L284.075 132.891L285.265 134.152L283.786 134.894L283.857 138.912L280.523 140.302L277.677 139.678L275.898 137.156L280.523 137.404L281.778 135.719L271.516 128.797L270.738 125.852L266.567 129.622L262.332 128.756L255.899 137.115L254.644 140.39L250.526 140.762L244.429 140.797L240.794 139.094L239.722 131.861L241.036 128.414L247.227 127.06L253.978 128.414L254.809 124.674L251.94 123.996L252.924 118.176L259.722 117.11L264.476 110.394L269.389 109.57L273.819 110.224H275.445L274.555 103.92L269.159 106.094L267.274 101.381L264.146 100.945L263.557 97.7114L266.114 94.9368L272.175 92.5628L273.33 90.4982C276.539 93.3451 279.607 96.3478 282.521 99.4945L282.502 104.663L276.853 107.531L277.418 109.411L286.437 109.493L288.501 106.421C294.22 113.532 299.208 121.256 303.352 129.478ZM110.868 82.0858L116.378 82.0418L119.329 83.6794L124.896 84.8811L125.326 87.0666L134.18 87.3965L132.978 84.5572L125.114 84.3392L126.958 82.625L126.31 80.5455H119.205L126.958 74.7548H134.386L137.88 79.5617L143.676 79.8916L147.17 76.4985L149.797 77.8121L144.984 82.513C144.984 82.513 138.327 82.625 138.651 82.625C138.975 82.625 139.199 87.208 139.199 87.208L147.276 86.9842L148.148 84.8046L153.714 84.4747L154.368 81.1994L151.093 80.6456L152.183 77.7002L154.692 76.9403L163.429 77.3762L158.616 81.7472L159.387 85.1286L164.412 85.8944L164.083 79.7797L168.89 77.2643L177.408 76.2805L189.749 81.7472V86.4422L193.684 87.426L191.717 91.1372H186.15L184.5 95.3963L171.764 92.392L181.773 87.0608L177.956 83.8208L169.325 84.9106L168.571 85.6882L168.542 85.6764L168.406 85.8649L165.926 88.4451L161.82 88.7927L162.15 90.8427L163.588 91.4376L163.529 92.1151L160.189 92.5922L159.941 94.5303L156.748 94.6953L156.171 90.8427L150.439 92.5864L138.722 99.4433L140.042 104.268L143.317 106.4L149.868 107.308V114.754L152.896 114.265L155.688 108.444L162.657 106.235V97.3049L166.533 94.3772L175.9 96.5862L175.24 102.483H177.749L184.63 99.1016L184.96 106.848L189.979 109.905L189.767 114.5L184.966 116.138L185.296 117.658L191.081 120.291L190.969 123.454L189.29 123.596L189.272 123.507L181.973 121.257L181.661 118.918H181.655L183.788 117.452V115.319L181.49 114.742L180.919 116.709L176.889 117.328L176.489 117.192V117.393L175.099 117.605L173.962 115.307L172.648 114.73H169.779L168.477 115.796V118.153L170.934 118.971L173.355 119.313L172.813 119.555L170.604 122.005L169.626 120.78L167.493 120.214L161.673 125.693L162.433 126.317L153.838 131.077L145.756 139.489L145.202 143.236L137.096 148.561L133.079 152.602L133.52 160.684L127.947 158.092L127.989 153.362L112.484 153.368L104.454 157.433L100.967 163.86L99.5885 168.955L101.845 173.898L108.172 174.669L118.227 167.948L119.105 171.276L116.036 177.073L123.688 178.38L124.448 190.197L134.934 191.976L141.597 184.277L149.685 185.921L152.524 189.873L160.277 189.414L160.495 187.117L164.754 189.196L169.549 196.724L177.85 196.848L180.913 202.203L181.349 208.748L190.527 212.247L202.103 212.365L205.49 217.92L210.621 219.563L209.637 224.152L204.011 231.298L202.374 247.121L197.302 251.138L189.767 250.908L187.252 255.273L189.113 263.474L180.919 273.959L178.297 278.766L170.486 282.519L165.349 283.296L165.137 285.476L168.742 286.507L168.306 288.851L165.078 291.956L167.04 294.418L170.928 294.536L170.71 297.54L169.679 300.486L169.349 302.889L175.099 307.731L174.333 310.247L166.51 310.105L158.728 303.307L152.666 292.651L153.514 282.365L148.925 276.245L150.781 265.865L148.053 265.099V242.602C148.053 242.602 140.407 236.812 139.971 236.812C139.529 236.812 135.924 235.834 135.924 235.834L135.164 231.569L125.22 219.121L126.204 214.644L126.528 207.328L133.403 202.521L132.419 194.327L122.375 193.567L114.51 184.607L108.943 183.087L105.338 182.427L105.774 179.152L101.185 178.498V180.354L89.7153 177.514L85.0968 170.451L86.9701 167.029L79.7066 156.431L78.4636 148.679H75.5182L76.5019 156.213L81.5269 163.966L80.9791 167.029L76.7199 166.375L71.4829 157.439V147.041L66.022 144.414L66.0215 138.929C68.0906 133.848 70.4709 128.927 73.1388 124.189L76.1779 120.497L76.0669 119.248C85.1285 104.695 96.978 92.0592 110.868 82.0858ZM312.176 152.007C315.466 163.462 317.229 175.564 317.229 188.077C317.229 219.671 305.992 248.641 287.297 271.208H284.564V262.478L279.545 255.727V245.218L275.722 241.406L275.392 237.035L280.246 227.757L271.027 211.481L272.128 200.436L263.822 199.576L260.765 196.512H255.192L252.358 199.134H242.532L242.202 200.006H236.735L224.176 185.703L224.288 174.557L226.361 173.797L227.133 169.532H224.188L222.98 165.055L237.513 154.57V147.141L244.623 143.194L247.492 143.483H253.348L257.919 141.027L272.67 139.878V147.418L284.311 150.37L286.608 152.007H288.735V147.907L295.456 147.253L301.842 152.007H312.176ZM109.733 88.5217V88.7632L109.727 91.3905H116.195L117.544 89.5879V87.5379H112.849L112.602 88.5217H109.733ZM117.432 94.6658C117.185 94.6658 114.316 95.1548 114.316 95.1548L109.733 96.4625L110.964 97.9352L117.432 97.5288C117.432 97.5288 117.68 94.6658 117.432 94.6658ZM125.302 108.586L121.862 110.224L123.983 114.571L127.341 113.505L128.413 109.328L125.302 108.586ZM140.118 122.759V120.055H138.987V118.494H133.827L130.051 120.055L129.314 121.94L132.26 122.759H140.118ZM143.735 126.447V123.825H139.317V128.167L141.768 127.713L143.735 126.447ZM141.52 119.643V122.759L144.224 122.105L141.52 119.643ZM142.751 131.613V129.062L139.729 129.481L139.323 130.464L137.349 130.635L136.696 133.498H140.872L142.751 131.613ZM136.69 123.825H132.348L129.32 127.101L128.825 130.376L131.123 131.607L136.69 123.825ZM150.127 130.712V128.167L145.137 126.694H144.807V129.062L145.95 130.712H150.127ZM147.458 123.419L146.268 124.668L147.859 125.993L149.467 124.668L147.458 123.419ZM252.746 110.989L252.469 108.863L249.512 107.007L247.438 105.587V103.502L248.646 101.652L252.952 100.775L254.048 106.023L256.34 109.734L257.865 111.49L260.652 112.574L258.03 115.69L252.952 116.179H249.135L249.559 111.649L252.746 110.989ZM249.029 107.767L248.799 110.606L243.403 114.43H240.346V111.702L242.967 107.496L246.502 106.677L249.029 107.767ZM175.269 124.668L176.047 122.665L177.549 122.636L179.263 122.989L178.527 124.509L176.659 124.668L176.282 126.476L174.839 127.372L172.53 127.566C172.453 127.024 172.4 126.612 172.4 126.612H171.505V124.668H175.269ZM166.198 128.096L166.345 126.193L167.57 124.668L169.208 125.958L168.925 127.866L166.198 128.096Z" fill="url(#paint5_linear_612_3067)"/>
<g style="mix-blend-mode:soft-light">
<rect x="246.227" y="71.9632" width="84.6626" height="82.546" fill="url(#paint6_radial_612_3067)"/>
</g>
<ellipse cx="187" cy="188.059" rx="185.589" ry="185.942" stroke="#FFF3FB" stroke-width="1.41132" stroke-linecap="round"/>
<path d="M316.638 177.791C391.52 170.984 309.528 143.188 208.907 140.582C108.359 137.978 -19.5478 163.767 57.3938 173.834" stroke="url(#paint7_linear_612_3067)" stroke-width="1.41104" stroke-linecap="round"/>
<path d="M157.684 208.482C211.303 100.89 335.136 53.5459 293.376 113.96" stroke="url(#paint8_linear_612_3067)" stroke-width="1.41104" stroke-linecap="round"/>
<path d="M240.756 291.175C296.186 335.865 276.627 232.032 220.134 156.782C163.683 81.5864 60.1504 32.8802 90.9879 100.863" stroke="url(#paint9_linear_612_3067)" stroke-width="1.41104" stroke-linecap="round"/>
</g>
<defs>
<radialGradient id="paint0_radial_612_3067" cx="0" cy="0" r="1" gradientUnits="userSpaceOnUse" gradientTransform="translate(212.087 163.284) rotate(99.2423) scale(157.228)">
<stop stop-color="#30A1FC"/>
<stop offset="1" stop-color="#FF87FA"/>
</radialGradient>
<radialGradient id="paint1_radial_612_3067" cx="0" cy="0" r="1" gradientUnits="userSpaceOnUse" gradientTransform="translate(132.638 109.708) rotate(62.396) scale(243.621)">
<stop stop-color="#0486FE"/>
<stop offset="1" stop-color="white" stop-opacity="0"/>
</radialGradient>
<radialGradient id="paint2_radial_612_3067" cx="0" cy="0" r="1" gradientUnits="userSpaceOnUse" gradientTransform="translate(317.228 144) rotate(123.521) scale(86.4644 104.072)">
<stop stop-color="white"/>
<stop offset="1" stop-color="white" stop-opacity="0"/>
</radialGradient>
<radialGradient id="paint3_radial_612_3067" cx="0" cy="0" r="1" gradientUnits="userSpaceOnUse" gradientTransform="translate(329.831 223.65) rotate(-136.631) scale(148.976 149.614)">
<stop stop-color="#FAC5EC"/>
<stop offset="1" stop-color="#FAC5EC" stop-opacity="0"/>
</radialGradient>
<radialGradient id="paint4_radial_612_3067" cx="0" cy="0" r="1" gradientUnits="userSpaceOnUse" gradientTransform="translate(195.099 169.711) rotate(106.479) scale(148.907 143.175)">
<stop offset="0.619792" stop-color="white" stop-opacity="0"/>
<stop offset="0.796875" stop-color="white" stop-opacity="0"/>
<stop offset="1" stop-color="white"/>
</radialGradient>
<linearGradient id="paint5_linear_612_3067" x1="200.721" y1="131.932" x2="283.973" y2="271.273" gradientUnits="userSpaceOnUse">
<stop stop-color="#DFFCFF"/>
<stop offset="0.187584" stop-color="#E2F2FF"/>
<stop offset="0.502443" stop-color="#F0DCFF"/>
<stop offset="1" stop-color="#F9D5FE"/>
</linearGradient>
<radialGradient id="paint6_radial_612_3067" cx="0" cy="0" r="1" gradientUnits="userSpaceOnUse" gradientTransform="translate(288.558 113.236) rotate(90) scale(41.273 42.622)">
<stop stop-color="white"/>
<stop offset="1" stop-color="white" stop-opacity="0"/>
</radialGradient>
<linearGradient id="paint7_linear_612_3067" x1="33.8652" y1="165.798" x2="345.706" y2="165.798" gradientUnits="userSpaceOnUse">
<stop stop-color="white"/>
<stop offset="0.209505" stop-color="#F9FEFF"/>
<stop offset="0.35759" stop-color="white"/>
<stop offset="0.35759" stop-color="#6EEAFE"/>
<stop offset="0.590728" stop-color="#BAEEFE"/>
<stop offset="0.675386" stop-color="#FFF3FC"/>
<stop offset="1" stop-color="#FFF3F6"/>
</linearGradient>
<linearGradient id="paint8_linear_612_3067" x1="301.963" y1="83.2515" x2="168.619" y2="192.255" gradientUnits="userSpaceOnUse">
<stop stop-color="#FFFAFE"/>
<stop offset="0.211767" stop-color="#FFF4FE"/>
<stop offset="0.424108" stop-color="#FFF1FE"/>
<stop offset="0.541371" stop-color="#BAEEFE"/>
<stop offset="0.938907" stop-color="#ABEDFE"/>
<stop offset="1" stop-color="#FFFBFF"/>
</linearGradient>
<linearGradient id="paint9_linear_612_3067" x1="291.027" y1="301.963" x2="85.368" y2="68.4356" gradientUnits="userSpaceOnUse">
<stop offset="0.469691" stop-color="#FFF1F7"/>
<stop offset="0.644711" stop-color="#9AECFE"/>
<stop offset="0.644711" stop-color="white"/>
<stop offset="0.760661" stop-color="white"/>
<stop offset="0.760997" stop-color="#AAECFE"/>
<stop offset="0.800173" stop-color="#AAECFE"/>
<stop offset="0.800318" stop-color="white"/>
<stop offset="0.829946" stop-color="white"/>
<stop offset="0.830269" stop-color="#AAECFE"/>
<stop offset="0.849303" stop-color="#AAECFE"/>
<stop offset="0.849753" stop-color="white"/>
<stop offset="0.897093" stop-color="white"/>
<stop offset="0.897609" stop-color="#AAECFE"/>
<stop offset="0.906048" stop-color="#AAECFE"/>
<stop offset="0.907394" stop-color="#FFFAFF"/>
<stop offset="1" stop-color="#FFFAFF"/>
</linearGradient>
<clipPath id="clip0_612_3067">
<rect width="373.926" height="230" fill="white"/>
</clipPath>
</defs>
</svg>
