<svg width="150" height="98" viewBox="0 0 150 98" fill="none" xmlns="http://www.w3.org/2000/svg">
<rect width="150" height="98" rx="16" fill="url(#paint0_linear_239_5574)"/>
<g filter="url(#filter0_d_239_5574)">
<path d="M73.1243 36.069C73.7686 34.3278 76.2314 34.3278 76.8757 36.069L79.5425 43.2759C79.7451 43.8233 80.1767 44.2549 80.7241 44.4575L87.931 47.1243C89.6722 47.7686 89.6722 50.2314 87.931 50.8757L80.7241 53.5425C80.1767 53.7451 79.7451 54.1767 79.5425 54.7241L76.8757 61.931C76.2314 63.6722 73.7686 63.6722 73.1243 61.931L70.4575 54.7241C70.2549 54.1767 69.8233 53.7451 69.2759 53.5425L62.069 50.8757C60.3278 50.2314 60.3278 47.7686 62.069 47.1243L69.2759 44.4575C69.8233 44.2549 70.2549 43.8233 70.4575 43.2759L73.1243 36.069Z" fill="url(#paint1_radial_239_5574)" shape-rendering="crispEdges"/>
</g>
<defs>
<filter id="filter0_d_239_5574" x="52.7627" y="30.7631" width="44.4746" height="44.4739" filterUnits="userSpaceOnUse" color-interpolation-filters="sRGB">
<feFlood flood-opacity="0" result="BackgroundImageFix"/>
<feColorMatrix in="SourceAlpha" type="matrix" values="0 0 0 0 0 0 0 0 0 0 0 0 0 0 0 0 0 0 127 0" result="hardAlpha"/>
<feOffset dy="4"/>
<feGaussianBlur stdDeviation="4"/>
<feComposite in2="hardAlpha" operator="out"/>
<feColorMatrix type="matrix" values="0 0 0 0 0.488723 0 0 0 0 0.326007 0 0 0 0 0.954167 0 0 0 1 0"/>
<feBlend mode="normal" in2="BackgroundImageFix" result="effect1_dropShadow_239_5574"/>
<feBlend mode="normal" in="SourceGraphic" in2="effect1_dropShadow_239_5574" result="shape"/>
</filter>
<linearGradient id="paint0_linear_239_5574" x1="80.5" y1="60" x2="123.5" y2="145.5" gradientUnits="userSpaceOnUse">
<stop stop-color="#8458FF"/>
<stop offset="1" stop-color="#EB86FC"/>
</linearGradient>
<radialGradient id="paint1_radial_239_5574" cx="0" cy="0" r="1" gradientUnits="userSpaceOnUse" gradientTransform="translate(75 40) rotate(90) scale(27)">
<stop stop-color="white"/>
<stop offset="1" stop-color="white" stop-opacity="0.76"/>
</radialGradient>
</defs>
</svg>
