<svg width="30" height="30" viewBox="0 0 30 30" fill="none" xmlns="http://www.w3.org/2000/svg">
<path d="M18.1213 2.87868C16.9497 1.70711 15.0503 1.70711 13.8787 2.87868C12.7071 4.05025 12.7071 5.94975 13.8787 7.12132L18.1213 2.87868ZM26 15L28.1213 17.1213C28.6839 16.5587 29 15.7956 29 15C29 14.2044 28.6839 13.4413 28.1213 12.8787L26 15ZM13.8787 22.8787C12.7071 24.0503 12.7071 25.9497 13.8787 27.1213C15.0503 28.2929 16.9497 28.2929 18.1213 27.1213L13.8787 22.8787ZM13.8787 7.12132L23.8787 17.1213L28.1213 12.8787L18.1213 2.87868L13.8787 7.12132ZM23.8787 12.8787L13.8787 22.8787L18.1213 27.1213L28.1213 17.1213L23.8787 12.8787Z" fill="#3D74E1"/>
<path d="M4 12C2.34315 12 1 13.3431 1 15C1 16.6569 2.34315 18 4 18L4 12ZM23 18C24.6569 18 26 16.6569 26 15C26 13.3431 24.6569 12 23 12L23 18ZM4 18L23 18L23 12L4 12L4 18Z" fill="#3D74E1"/>
</svg>
