<svg width="11" height="13" viewBox="0 0 11 13" fill="none" xmlns="http://www.w3.org/2000/svg">
<path d="M9.98006 2.54546C10.4573 1.65909 9.91188 0.5 9.91188 0.5C8.6846 0.5 7.79823 1.31818 7.79823 1.31818C7.32096 1.04545 5.75278 1.04545 5.75278 1.04545C5.75278 1.04545 4.18459 1.04545 3.70732 1.31818C3.70732 1.31818 2.82095 0.5 1.59368 0.5C1.59368 0.5 1.04821 1.65909 1.52549 2.54546C1.52549 2.54546 0.434581 3.56819 0.84367 5.75001C1.22809 7.80025 3.02549 8.34093 4.18458 8.34093C4.18458 8.34093 3.7073 8.75002 3.77549 9.43183C3.77549 9.43183 3.09367 9.84092 2.41185 9.56819C1.73003 9.29546 1.38912 8.61364 1.38912 8.61364C1.38912 8.61364 0.707298 7.72728 0.0254792 8.06818C0.0254792 8.06818 -0.179065 8.27273 0.57094 8.61364C0.57094 8.61364 1.1164 9.43182 1.32094 9.9091C1.52549 10.3864 2.6164 10.7955 3.70732 10.5227V12.0909C3.70732 12.0909 3.70732 12.2273 3.43459 12.2955C3.16186 12.3636 3.16186 12.5 3.29823 12.5H8.20732C8.34368 12.5 8.34368 12.3636 8.07096 12.2955C7.79823 12.2273 7.79823 12.0909 7.79823 12.0909V10.5227C7.79823 10.5227 7.80422 9.70501 7.79823 9.43182C7.78324 8.74677 7.32096 8.34091 7.32096 8.34091C8.48005 8.34091 10.2774 7.80024 10.6619 5.75C11.071 3.56819 9.98006 2.54546 9.98006 2.54546Z" fill="#834DF4"/>
</svg>
