<svg width="20" height="20" viewBox="0 0 20 20" fill="none" xmlns="http://www.w3.org/2000/svg">
<path d="M18.1818 14.6589C18.1565 14.7352 17.7619 16.105 16.7923 17.5135C15.9531 18.7286 15.0854 19.9534 13.7149 19.9749C12.3671 19.9985 11.9359 19.1746 10.3971 19.1746C8.86023 19.1746 8.37712 19.9534 7.10339 19.9985C5.78665 20.0521 4.77342 18.6713 3.93108 17.4622C2.20952 14.9854 0.883973 10.4435 2.66176 7.39962C3.53643 5.87668 5.10861 4.90862 6.82068 4.88217C8.11086 4.8579 9.33839 5.75196 10.122 5.75196C10.9271 5.75196 12.412 4.67014 13.9786 4.83198C14.6345 4.85981 16.4692 5.10488 17.6512 6.80989C17.5582 6.87285 15.456 8.10746 15.4794 10.6202C15.511 13.6537 18.1533 14.6486 18.1818 14.6589ZM12.9535 3.2071C13.6599 2.34954 14.1241 1.1707 14.002 0C12.9933 0.0393687 11.7644 0.666611 11.034 1.51912C10.3882 2.26288 9.81902 3.46007 9.97779 4.61717C11.0985 4.68492 12.2508 4.03311 12.9535 3.2071Z" fill="white"/>
</svg>
