<svg width="20" height="20" viewBox="0 0 20 20" fill="none" xmlns="http://www.w3.org/2000/svg">
<path d="M17.981 16.2906C17.8777 15.9971 16.9794 15.6286 16.6964 15.0394C16.4135 14.4503 16.6448 14.1332 16.2091 13.8375C16.1507 13.7968 16.0856 13.7733 16.016 13.7583C16.1687 13.3726 16.1732 12.8456 16.1529 12.1514C16.1013 10.3367 15.2704 9.24838 14.8234 8.71705C14.2889 8.08074 14.1048 7.84078 13.6938 7.22375C13.2963 6.62815 12.8741 5.89543 12.8606 5.107C12.8427 4.17503 12.809 3.1038 12.3463 2.2961C11.8837 1.48839 10.7339 0.691394 9.10792 1.11989C7.36968 1.57837 7.32701 2.97311 7.25065 4.00364C7.17429 5.03416 7.66612 5.76688 7.2529 7.0695C6.83967 8.37211 6.12102 8.85631 5.77517 9.50976C4.91952 11.1273 4.73761 11.2709 4.36257 12.1043C3.9471 13.0234 4.25926 13.5676 4.25926 13.5676L4.27723 13.6126C4.12901 13.8739 4.0504 14.1353 3.87523 14.206C3.52489 14.3474 2.69395 14.1332 2.41098 14.4031C2.12801 14.6731 2.54797 16.3078 2.35933 16.6099C2.17068 16.912 2 16.9034 2 17.394C2 17.8846 2.56594 17.8354 4.77579 18.5467C6.98565 19.258 7.39663 19.0608 7.91091 18.4481C7.99625 18.3474 8.05015 18.236 8.08159 18.1182C8.75757 18.0603 9.44029 18.0089 9.8378 18.0068C10.7204 18.0025 11.9556 18.2681 12.5305 18.4031C12.6136 18.6152 12.7349 18.7866 12.8966 18.8659C13.3592 19.0866 14.4394 19.063 15.0817 18.4738C15.724 17.8846 17.3432 17.1262 17.5498 16.9291C17.7564 16.732 18.0821 16.5842 17.981 16.2906ZM8.73062 4.97846C8.70592 4.69994 8.54647 4.48783 8.37354 4.50069C8.20062 4.51354 8.07935 4.75136 8.10405 5.02773C8.11752 5.18199 8.17367 5.31696 8.25003 5.40266C8.22308 5.42623 8.19837 5.44765 8.17367 5.46908C8.0479 5.31268 7.94235 5.06201 7.9154 4.75564C7.86824 4.22645 8.08384 3.81082 8.30842 3.79368H8.32414V3.63513V3.79368C8.54198 3.79368 8.81821 4.15789 8.86313 4.68065C8.87211 4.79206 8.86986 4.89704 8.86088 4.9956C8.81821 5.01274 8.77554 5.03202 8.73512 5.0513C8.73287 5.02987 8.73287 5.00417 8.73062 4.97846ZM8.41172 5.26555C8.41172 5.26769 8.41172 5.26769 8.41172 5.26555C8.41172 5.26769 8.41172 5.26769 8.41172 5.26555ZM8.35558 5.31268L8.35333 5.31482L8.35558 5.31268ZM8.30168 5.35981L8.29943 5.36196C8.29943 5.35981 8.29943 5.35981 8.30168 5.35981ZM8.08608 5.54192C8.09956 5.53121 8.11079 5.5205 8.12426 5.50979C8.11079 5.52264 8.09956 5.53335 8.08608 5.54192ZM8.131 5.5055C8.14447 5.49479 8.15795 5.48193 8.17142 5.47122C8.15795 5.48408 8.14447 5.49479 8.131 5.5055ZM8.49931 6.01112C8.55545 5.96613 8.60935 5.919 8.661 5.874C8.9013 5.66404 9.063 5.5355 9.2786 5.52693C9.3033 5.52478 9.328 5.52478 9.35271 5.52478C9.71877 5.52478 10.0893 5.64905 10.5924 5.94471C10.6373 5.97042 10.68 5.99398 10.7204 6.01755C10.6081 6.11396 10.4734 6.22537 10.3184 6.34535C9.96131 6.62172 9.69631 6.79312 9.55932 6.86596C9.45826 6.82311 9.2741 6.7267 9.00012 6.54674C8.70143 6.34963 8.47236 6.16538 8.41397 6.10967C8.43643 6.0754 8.46562 6.03897 8.49931 6.01112ZM10.6553 5.26983C10.6665 5.27626 10.68 5.28269 10.6912 5.28911C10.68 5.28269 10.6687 5.27626 10.6553 5.26983ZM10.6934 4.4557C10.4778 4.44498 10.2735 4.66566 10.2375 4.94846C10.2308 4.99345 10.2308 5.03844 10.2353 5.07915C10.1522 5.04701 10.0691 5.02131 9.98826 4.99774C9.97928 4.90347 9.97928 4.80492 9.99276 4.70636C10.0242 4.44927 10.1297 4.20931 10.2847 4.03577C10.4239 3.88152 10.5856 3.79582 10.7406 3.79582H10.7631C10.8798 3.80225 10.9854 3.85581 11.073 3.9565C11.2324 4.13647 11.3043 4.42999 11.2661 4.74064C11.2347 4.99774 11.1291 5.23769 10.9742 5.41123C10.9674 5.41766 10.9607 5.42623 10.954 5.43266L10.9337 5.4198C10.9023 5.40052 10.8709 5.38338 10.8394 5.36624C10.9337 5.27626 11.0011 5.14128 11.0213 4.98703C11.0528 4.70422 10.909 4.46641 10.6934 4.4557ZM10.7833 5.33839C10.7698 5.33196 10.7563 5.32339 10.7428 5.31696C10.7586 5.32339 10.772 5.32982 10.7833 5.33839ZM10.4734 5.17985C10.4644 5.17556 10.4531 5.17128 10.4442 5.16699C10.4531 5.17128 10.4621 5.17556 10.4734 5.17985ZM10.3858 5.14128C10.3768 5.137 10.37 5.13486 10.3611 5.13057C10.37 5.13486 10.379 5.13914 10.3858 5.14128ZM9.85576 4.96774C9.85801 4.96774 9.86025 4.96989 9.86475 4.96989C9.86025 4.96774 9.85801 4.96774 9.85576 4.96774ZM11.0123 5.46694C10.9921 5.45622 10.9719 5.44337 10.9517 5.43266C10.9719 5.44551 10.9921 5.45622 11.0123 5.46694ZM11.1651 5.55049C11.1538 5.54406 11.1404 5.53764 11.1269 5.53121C11.1404 5.53764 11.1516 5.54406 11.1651 5.55049ZM11.1224 5.52907C11.1067 5.5205 11.0887 5.50979 11.0707 5.50122C11.0887 5.50979 11.1067 5.5205 11.1224 5.52907ZM11.0685 5.49907C11.0505 5.48836 11.0326 5.47765 11.0123 5.46694C11.0326 5.47765 11.0505 5.48836 11.0685 5.49907ZM11.8029 16.4042C11.3986 16.7556 11.0887 16.9012 10.8619 17.0384C10.4374 17.2955 9.75246 17.4519 9.04054 17.349C8.58914 17.2847 8.1849 17.1048 7.83006 16.9012C7.74472 16.7427 7.65938 16.6142 7.5965 16.537C7.4393 16.3378 6.3703 14.8959 5.70106 13.9961C5.66512 13.8118 5.64716 13.6319 5.6494 13.4605C5.66288 12.4064 5.97055 11.1744 6.22208 10.8852C6.29844 10.7974 6.85988 9.27195 6.99238 8.94843C7.23718 8.35926 7.61447 7.66724 7.8121 7.26232C7.94684 6.92809 7.96706 6.69457 7.94909 6.53602C8.17142 6.7567 9.21347 7.50656 9.58627 7.50656H9.59301C9.90292 7.50013 11.0909 6.57673 11.4974 6.15252C11.5356 6.30678 11.7355 6.61315 11.8635 6.90881C12.2363 7.77008 12.6697 9.38121 13.3637 10.2746C13.4108 10.3367 13.5276 10.5467 13.5501 10.6281C13.8196 11.5515 13.7657 12.25 13.5995 13.6211C13.5254 13.5976 13.44 13.5783 13.3277 13.5697C12.8539 13.5333 12.6855 13.7176 12.6855 13.7176C12.6855 13.7176 12.6585 14.7331 12.6069 15.6736C12.5664 15.7165 12.5238 15.7593 12.4811 15.8022C12.2385 16.0335 12.014 16.2328 11.8029 16.4042Z" fill="white"/>
</svg>
