<svg width="15" height="13" viewBox="0 0 15 13" fill="none" xmlns="http://www.w3.org/2000/svg">
<path d="M4.57373 12.5C2.89021 12.5 1.32089 12.0091 0 11.1621C1.12148 11.2348 3.10063 11.0606 4.33166 9.88337C2.47978 9.79817 1.64463 8.37424 1.53569 7.76572C1.69304 7.82657 2.44347 7.89959 2.8671 7.72921C0.736845 7.19371 0.410044 5.31947 0.482666 4.74746C0.88209 5.02738 1.5599 5.12475 1.82618 5.10041C-0.158832 3.67647 0.555289 1.53448 0.906298 1.07201C2.33082 3.05061 4.46573 4.16186 7.10689 4.22367C7.05709 4.00471 7.03079 3.77674 7.03079 3.5426C7.03079 1.86222 8.38555 0.5 10.0567 0.5C10.9299 0.5 11.7167 0.871872 12.269 1.4667C12.8525 1.32962 13.7306 1.00873 14.1599 0.731237C13.9435 1.51014 13.2699 2.15991 12.8624 2.40074C12.8657 2.40893 12.859 2.39251 12.8624 2.40074C13.2203 2.34645 14.1888 2.15984 14.5714 1.89959C14.3822 2.33717 13.668 3.06473 13.0819 3.47205C13.1909 8.29377 9.51123 12.5 4.57373 12.5Z" fill="white"/>
</svg>
