<svg width="14" height="13" viewBox="0 0 14 13" fill="none" xmlns="http://www.w3.org/2000/svg">
<path d="M13.9634 6.58009C13.9634 6.11831 13.7799 5.67544 13.4534 5.34891C13.1269 5.02239 12.684 4.83894 12.2222 4.83894C11.8427 4.84288 11.4752 4.97271 11.1775 5.20807C10.1005 4.58062 8.89081 4.21557 7.64646 4.14248L8.07827 1.67005C8.08338 1.62943 8.10323 1.59211 8.13404 1.56515C8.16485 1.53819 8.20448 1.52347 8.24542 1.5238H8.29417L10.4811 2.1924C10.5135 2.51401 10.6568 2.81433 10.8864 3.04187C11.116 3.26941 11.4176 3.41002 11.7395 3.43958C12.0614 3.46915 12.3836 3.38584 12.6508 3.20393C12.918 3.02202 13.1136 2.75284 13.2041 2.44252C13.2946 2.1322 13.2744 1.80006 13.1469 1.50302C13.0194 1.20598 12.7925 0.962543 12.5052 0.814422C12.2179 0.666301 11.888 0.622721 11.5721 0.691151C11.2561 0.759581 10.9738 0.93576 10.7736 1.1895L8.57275 0.548752C8.46146 0.518433 8.34682 0.502057 8.23149 0.5C7.94496 0.50067 7.66783 0.602266 7.44876 0.786946C7.22969 0.971625 7.08269 1.22758 7.03358 1.50987L6.58784 4.14248C5.26316 4.18105 3.96867 4.54715 2.82 5.20807C2.52226 4.97271 2.15481 4.84288 1.77531 4.83894C1.40401 4.83014 1.0397 4.94076 0.735999 5.15454C0.432295 5.36831 0.205244 5.67394 0.0882658 6.02643C-0.0287119 6.37892 -0.0294355 6.75966 0.0862015 7.11259C0.201839 7.46553 0.427727 7.77202 0.730616 7.98694C0.723717 8.09827 0.723717 8.20992 0.730616 8.32124C0.730616 10.6265 3.51645 12.5 6.99875 12.5C10.4811 12.5 13.2669 10.6265 13.2669 8.32124C13.2738 8.20992 13.2738 8.09827 13.2669 7.98694C13.485 7.82335 13.6617 7.61082 13.7827 7.36646C13.9036 7.1221 13.9655 6.85275 13.9634 6.58009ZM3.51645 7.27655C3.51645 7.06993 3.57772 6.86795 3.69252 6.69615C3.80731 6.52436 3.97047 6.39046 4.16136 6.31139C4.35225 6.23232 4.5623 6.21163 4.76495 6.25194C4.9676 6.29225 5.15375 6.39174 5.29985 6.53785C5.44595 6.68395 5.54545 6.87009 5.58576 7.07274C5.62607 7.27539 5.60538 7.48545 5.52631 7.67634C5.44724 7.86723 5.31334 8.03039 5.14154 8.14518C4.96974 8.25997 4.76776 8.32124 4.56114 8.32124C4.28408 8.32124 4.01835 8.21118 3.82244 8.01526C3.62652 7.81934 3.51645 7.55362 3.51645 7.27655ZM9.23439 10.3688C9.22218 10.4159 9.20042 10.46 9.17047 10.4983C9.14052 10.5367 9.10301 10.5685 9.06027 10.5917C8.42581 10.9301 7.71781 11.1071 6.99875 11.1071C6.2797 11.1071 5.57169 10.9301 4.93723 10.5917C4.8945 10.5685 4.85699 10.5367 4.82704 10.4983C4.79709 10.46 4.77533 10.4159 4.76312 10.3688C4.75315 10.321 4.75294 10.2717 4.76252 10.2239C4.77209 10.176 4.79125 10.1305 4.81883 10.0903L5.02081 9.8047C5.07098 9.73746 5.14417 9.69105 5.22639 9.67435C5.30861 9.65765 5.39411 9.67182 5.46654 9.71416C5.94452 9.94437 6.46823 10.0639 6.99875 10.0639C7.52928 10.0639 8.05299 9.94437 8.53096 9.71416C8.6058 9.67391 8.69296 9.66302 8.77539 9.68363C8.85783 9.70424 8.92961 9.75486 8.9767 9.8256L9.17867 10.1111C9.22896 10.187 9.24885 10.279 9.23439 10.3688ZM9.43636 8.32124C9.22974 8.32124 9.02776 8.25997 8.85596 8.14518C8.68417 8.03039 8.55026 7.86723 8.47119 7.67634C8.39212 7.48545 8.37144 7.27539 8.41175 7.07274C8.45205 6.87009 8.55155 6.68395 8.69765 6.53785C8.84376 6.39174 9.0299 6.29225 9.23255 6.25194C9.4352 6.21163 9.64526 6.23232 9.83615 6.31139C10.027 6.39046 10.1902 6.52436 10.305 6.69615C10.4198 6.86795 10.4811 7.06993 10.4811 7.27655C10.4811 7.55362 10.371 7.81934 10.1751 8.01526C9.97915 8.21118 9.71343 8.32124 9.43636 8.32124Z" fill="#F44822"/>
</svg>
