<svg width="20" height="20" viewBox="0 0 20 20" fill="none" xmlns="http://www.w3.org/2000/svg">
<path d="M11 7H10C10 7.55228 10.4477 8 11 8V7ZM11 1H12C12 0.586862 11.7459 0.216254 11.3606 0.0672781C10.9753 -0.0816982 10.538 0.0216296 10.2601 0.327327L11 1ZM1 12L0.26006 11.3273C-0.00619566 11.6202 -0.0746436 12.0426 0.0854857 12.4046C0.245615 12.7665 0.604183 13 1 13V12ZM9 12H10C10 11.4477 9.55229 11 9 11V12ZM9 19H8C8 19.421 8.2637 19.7969 8.65957 19.9403C9.05545 20.0836 9.49869 19.9636 9.76822 19.6402L9 19ZM19 7L19.7682 7.64018C20.0166 7.3421 20.0702 6.92723 19.9056 6.57584C19.741 6.22446 19.388 6 19 6V7ZM12 7V1H10V7H12ZM10.2601 0.327327L0.26006 11.3273L1.73994 12.6727L11.7399 1.67267L10.2601 0.327327ZM1 13H9V11H1V13ZM8 12V19H10V12H8ZM9.76822 19.6402L19.7682 7.64018L18.2318 6.35982L8.23178 18.3598L9.76822 19.6402ZM19 6H11V8H19V6Z" fill="#F89C12"/>
</svg>
