<svg width="16" height="13" viewBox="0 0 16 13" fill="none" xmlns="http://www.w3.org/2000/svg">
<path d="M13.3535 1.51348C13.3492 1.505 13.3419 1.49835 13.3331 1.49473C12.3119 1.02621 11.2343 0.692122 10.1272 0.500819C10.1171 0.49895 10.1067 0.500299 10.0975 0.504675C10.0882 0.509051 10.0806 0.516231 10.0757 0.525195C9.92895 0.791523 9.79574 1.06509 9.67658 1.34484C8.48318 1.16368 7.26927 1.16368 6.07587 1.34484C5.95592 1.06438 5.82058 0.790744 5.67047 0.525195C5.66532 0.516426 5.65765 0.509411 5.64846 0.505063C5.63927 0.500716 5.62898 0.499237 5.61893 0.500819C4.51171 0.69172 3.43402 1.02584 2.41299 1.49476C2.40425 1.49847 2.39688 1.50479 2.39189 1.51287C0.350033 4.56211 -0.209308 7.53638 0.0650858 10.4738C0.0658577 10.481 0.0680695 10.488 0.0715897 10.4943C0.0751099 10.5006 0.0798666 10.5062 0.0855769 10.5106C1.27453 11.391 2.60439 12.0629 4.0184 12.4979C4.02836 12.5008 4.03899 12.5007 4.04887 12.4975C4.05875 12.4942 4.0674 12.488 4.07366 12.4797C4.37736 12.0665 4.64646 11.6289 4.87822 11.1715C4.88141 11.1652 4.88323 11.1583 4.88356 11.1513C4.88389 11.1443 4.88273 11.1372 4.88015 11.1307C4.87757 11.1241 4.87363 11.1182 4.8686 11.1133C4.86356 11.1084 4.85754 11.1046 4.85093 11.1022C4.42658 10.9398 4.01576 10.7441 3.62232 10.5168C3.61517 10.5126 3.60917 10.5067 3.60484 10.4996C3.60051 10.4926 3.59799 10.4845 3.5975 10.4763C3.59701 10.468 3.59857 10.4597 3.60203 10.4522C3.6055 10.4446 3.61076 10.4381 3.61736 10.4331C3.70015 10.3712 3.7815 10.3075 3.86136 10.2419C3.86836 10.2361 3.87683 10.2324 3.88583 10.2312C3.89482 10.23 3.90397 10.2313 3.91225 10.235C6.48982 11.4114 9.28039 11.4114 11.8274 10.235C11.8357 10.2311 11.845 10.2296 11.8541 10.2307C11.8632 10.2318 11.8719 10.2355 11.879 10.2413C11.9589 10.3072 12.0405 10.3712 12.1236 10.4331C12.1302 10.438 12.1355 10.4446 12.1391 10.4521C12.1426 10.4596 12.1442 10.4678 12.1438 10.4761C12.1433 10.4844 12.1409 10.4924 12.1366 10.4995C12.1323 10.5066 12.1264 10.5126 12.1193 10.5168C11.7267 10.746 11.3155 10.9416 10.8901 11.1015C10.8834 11.1041 10.8774 11.1079 10.8724 11.1129C10.8674 11.1179 10.8635 11.1239 10.861 11.1305C10.8585 11.1371 10.8574 11.1442 10.8578 11.1512C10.8582 11.1583 10.86 11.1652 10.8633 11.1715C11.0989 11.6264 11.3676 12.0634 11.6672 12.479C11.6733 12.4875 11.6819 12.4939 11.6918 12.4973C11.7017 12.5007 11.7125 12.5008 11.7225 12.4978C13.139 12.0643 14.4712 11.3923 15.6616 10.5106C15.6674 10.5064 15.6723 10.501 15.6758 10.4947C15.6793 10.4885 15.6815 10.4816 15.6821 10.4744C16.0106 7.07845 15.1322 4.12855 13.3535 1.51348ZM5.26316 8.68522C4.48712 8.68522 3.84769 7.97306 3.84769 7.09845C3.84769 6.22385 4.47472 5.51164 5.26316 5.51164C6.05776 5.51164 6.69101 6.23003 6.67861 7.0984C6.67861 7.97306 6.05155 8.68522 5.26316 8.68522ZM10.4966 8.68522C9.72056 8.68522 9.08113 7.97306 9.08113 7.09845C9.08113 6.22385 9.70816 5.51164 10.4966 5.51164C11.2912 5.51164 11.9244 6.23003 11.912 7.0984C11.912 7.97306 11.2912 8.68522 10.4966 8.68522Z" fill="white"/>
</svg>
