<svg width="15" height="13" viewBox="0 0 15 13" fill="none" xmlns="http://www.w3.org/2000/svg">
<path d="M14.6509 0.535348L12.1663 1.64361C12.0938 1.68348 12.0334 1.74222 11.9912 1.81367C11.9491 1.88513 11.9268 1.96666 11.9268 2.04974L11.9268 10.9847C11.9265 11.0686 11.9494 11.1511 11.9929 11.2228C12.0364 11.2945 12.0988 11.3526 12.1732 11.3908L14.6578 12.4715C14.6932 12.491 14.733 12.5008 14.7733 12.4999C14.8137 12.4991 14.8531 12.4877 14.8877 12.4668C14.9223 12.446 14.9508 12.4164 14.9705 12.381C14.9902 12.3456 15.0004 12.3056 15 12.265L15 0.741856C14.9987 0.701224 14.9872 0.66158 14.9666 0.626618C14.9459 0.591656 14.9169 0.562513 14.882 0.5419C14.8472 0.521288 14.8077 0.509878 14.7673 0.508732C14.7269 0.507587 14.6869 0.516743 14.6509 0.535348ZM2.75155 1.62984L0.342242 0.528464C0.306838 0.509017 0.266994 0.499219 0.226661 0.500041C0.186329 0.500863 0.146912 0.512276 0.112321 0.53315C0.077729 0.554023 0.0491655 0.58363 0.0294647 0.619033C0.0097638 0.654436 -0.000389716 0.694404 1.14422e-05 0.734973L1.14422e-05 12.2581C4.08217e-05 12.2999 0.0111511 12.3409 0.0321961 12.3769C0.0532411 12.4129 0.0834586 12.4426 0.11973 12.463C0.156002 12.4833 0.197014 12.4936 0.238535 12.4926C0.280056 12.4917 0.320582 12.4797 0.355931 12.4578L2.77893 11.1705C2.84585 11.1295 2.90115 11.0719 2.93951 11.0032C2.97787 10.9345 2.998 10.857 2.99795 10.7782L2.99795 2.03597C2.99534 1.95262 2.97126 1.87138 2.92807 1.80019C2.88488 1.729 2.82405 1.67031 2.75155 1.62984ZM10.308 4.67928L7.71389 3.18554C7.64423 3.14492 7.56513 3.12353 7.4846 3.12353C7.40407 3.12353 7.32497 3.14492 7.25531 3.18554L4.61328 4.66551C4.5426 4.70687 4.48393 4.76613 4.4431 4.83738C4.40227 4.90864 4.38071 4.98941 4.38057 5.07164V8.10043C4.38057 8.2677 4.46955 8.42259 4.61328 8.50657L7.25531 10.0347C7.39699 10.1173 7.57221 10.1173 7.71389 10.0347L10.308 8.52033C10.3787 8.47897 10.4374 8.41971 10.4782 8.34846C10.519 8.27721 10.5406 8.19644 10.5407 8.1142V5.08541C10.5414 5.00301 10.5202 4.92191 10.4793 4.85051C10.4384 4.7791 10.3792 4.71999 10.308 4.67928Z" fill="white"/>
</svg>
