<svg width="20" height="20" viewBox="0 0 20 20" fill="none" xmlns="http://www.w3.org/2000/svg">
<path d="M18.182 14.6589C18.1568 14.7352 17.7621 16.105 16.7926 17.5135C15.9534 18.7286 15.0856 19.9534 13.7151 19.9749C12.3674 19.9985 11.9361 19.1746 10.3973 19.1746C8.86048 19.1746 8.37737 19.9534 7.10363 19.9985C5.78689 20.0521 4.77367 18.6713 3.93132 17.4622C2.20977 14.9854 0.884217 10.4435 2.662 7.39962C3.53668 5.87668 5.10885 4.90862 6.82092 4.88217C8.11111 4.8579 9.33863 5.75196 10.1223 5.75196C10.9273 5.75196 12.4123 4.67014 13.9788 4.83198C14.6347 4.85981 16.4694 5.10488 17.6515 6.80989C17.5585 6.87285 15.4563 8.10746 15.4797 10.6202C15.5113 13.6537 18.1536 14.6486 18.182 14.6589ZM12.9537 3.2071C13.6601 2.34954 14.1243 1.1707 14.0022 0C12.9936 0.0393687 11.7646 0.666611 11.0342 1.51912C10.3885 2.26288 9.81927 3.46007 9.97804 4.61717C11.0987 4.68492 12.251 4.03311 12.9537 3.2071Z" fill="black"/>
</svg>
