<svg width="20" height="20" viewBox="0 0 20 20" fill="none" xmlns="http://www.w3.org/2000/svg">
<path d="M3.75243 4.69338C3.84746 4.639 3.95228 4.60389 4.06089 4.59004C4.1695 4.57619 4.27978 4.58388 4.38542 4.61266C4.49106 4.64145 4.58999 4.69078 4.67655 4.75782C4.76312 4.82486 4.83562 4.90831 4.88993 5.00338L6.28743 7.44922C7.45627 6.93155 8.72075 6.66497 9.99909 6.66672C11.1916 6.66672 12.3308 6.89422 13.3758 7.30838L14.6924 5.00338C14.802 4.81143 14.9834 4.67089 15.1967 4.61268C15.4099 4.55446 15.6376 4.58334 15.8295 4.69297C16.0215 4.80259 16.162 4.98397 16.2202 5.19722C16.2784 5.41046 16.2495 5.6381 16.1399 5.83005L14.8641 8.06255C16.0496 8.80472 17.0495 9.80831 17.7873 10.9965C18.5251 12.1847 18.9812 13.5259 19.1208 14.9175C19.1323 15.0334 19.1194 15.1503 19.083 15.2608C19.0466 15.3714 18.9874 15.4731 18.9093 15.5593C18.8312 15.6456 18.7358 15.7146 18.6295 15.7618C18.5231 15.809 18.408 15.8334 18.2916 15.8334H1.70826C1.59187 15.8334 1.47678 15.809 1.37039 15.7618C1.26401 15.7146 1.16869 15.6456 1.09057 15.5593C1.01246 15.4731 0.953285 15.3714 0.916861 15.2608C0.880437 15.1503 0.867572 15.0334 0.879094 14.9175C1.01226 13.5867 1.43517 12.3011 2.11814 11.1511C2.8011 10.0012 3.72755 9.01465 4.83243 8.26088L3.44243 5.83005C3.33287 5.63819 3.30398 5.41069 3.36211 5.19754C3.42024 4.98439 3.56063 4.80305 3.75243 4.69338ZM6.24993 12.9167C6.35937 12.9167 6.46775 12.8952 6.56887 12.8533C6.66999 12.8114 6.76187 12.7501 6.83927 12.6727C6.91666 12.5953 6.97806 12.5034 7.01994 12.4023C7.06183 12.3012 7.08339 12.1928 7.08339 12.0834C7.08339 11.9739 7.06183 11.8656 7.01994 11.7645C6.97806 11.6633 6.91666 11.5715 6.83927 11.4941C6.76187 11.4167 6.66999 11.3553 6.56887 11.3134C6.46775 11.2716 6.35937 11.25 6.24993 11.25C6.02894 11.2501 5.81701 11.3379 5.66075 11.4942C5.5045 11.6504 5.41672 11.8624 5.41672 12.0834C5.41672 12.3044 5.5045 12.5163 5.66075 12.6726C5.81701 12.8289 6.02894 12.9167 6.24993 12.9167ZM14.5833 12.0834C14.5833 11.8624 14.4955 11.6504 14.3392 11.4941C14.1829 11.3378 13.9709 11.25 13.7499 11.25C13.5289 11.25 13.317 11.3378 13.1607 11.4941C13.0044 11.6504 12.9166 11.8624 12.9166 12.0834C12.9166 12.3044 13.0044 12.5164 13.1607 12.6726C13.317 12.8289 13.5289 12.9167 13.7499 12.9167C13.9709 12.9167 14.1829 12.8289 14.3392 12.6726C14.4955 12.5164 14.5833 12.3044 14.5833 12.0834Z" fill="black"/>
</svg>
