<svg width="17" height="13" viewBox="0 0 17 13" fill="none" xmlns="http://www.w3.org/2000/svg">
<path d="M7.05882 8.97059V4.02941L11.2941 6.50847L7.05882 8.97059ZM16.7718 3.08847C16.7718 3.08847 16.6059 1.91318 16.0984 1.39506C15.4539 0.715294 14.7318 0.71247 14.4007 0.672941C12.0304 0.5 8.47412 0.5 8.47412 0.5H8.46706C8.46706 0.5 4.91082 0.5 2.54047 0.672941C2.20871 0.71247 1.48729 0.715294 0.842118 1.39506C0.334588 1.91318 0.169412 3.08918 0.169412 3.08918C0.169412 3.08918 0 4.46847 0 5.84847V7.14376C0 8.52447 0.169412 9.90518 0.169412 9.90518C0.169412 9.90518 0.334588 11.0805 0.842118 11.5986C1.48729 12.2784 2.33365 12.2565 2.71059 12.3278C4.06588 12.4598 8.47059 12.5 8.47059 12.5C8.47059 12.5 12.0304 12.4944 14.4007 12.3221C14.7325 12.2819 15.4539 12.2791 16.0984 11.5993C16.6066 11.0812 16.7718 9.90518 16.7718 9.90518C16.7718 9.90518 16.9412 8.52518 16.9412 7.14447V5.84988C16.9412 4.46918 16.7718 3.08847 16.7718 3.08847Z" fill="white"/>
</svg>
