<svg width="16" height="16" viewBox="0 0 16 16" fill="none" xmlns="http://www.w3.org/2000/svg">
<path d="M13.2071 2.79279C11.2977 0.883441 8.20206 0.883442 6.29271 2.79279L5.54269 3.54281C5.15216 3.93334 5.15216 4.5665 5.54269 4.95703C5.93321 5.34755 6.56637 5.34755 6.9569 4.95703L7.70692 4.20701C8.83522 3.0787 10.6646 3.0787 11.7929 4.207C12.9212 5.33531 12.9212 7.16464 11.7929 8.29295L11.0428 9.04297C10.6523 9.43349 10.6523 10.0667 11.0428 10.4572C11.4334 10.8477 12.0665 10.8477 12.4571 10.4572L13.2071 9.70716C15.1164 7.79781 15.1164 4.70214 13.2071 2.79279Z" fill="#3D74E1"/>
<path d="M4.95684 6.95708C5.34737 6.56656 5.34737 5.93339 4.95684 5.54287C4.56632 5.15234 3.93315 5.15234 3.54263 5.54287L2.79261 6.29289C0.883258 8.20224 0.883258 11.2979 2.79261 13.2073C4.70196 15.1166 7.79763 15.1166 9.70698 13.2073L10.457 12.4572C10.8475 12.0667 10.8475 11.4335 10.457 11.043C10.0665 10.6525 9.43331 10.6525 9.04278 11.043L8.29276 11.793C7.16446 12.9213 5.33512 12.9213 4.20682 11.793C3.07852 10.6647 3.07852 8.83541 4.20682 7.7071L4.95684 6.95708Z" fill="#3D74E1"/>
<path d="M9.207 8.20711C9.59752 7.81659 9.59752 7.18342 9.207 6.7929C8.81647 6.40237 8.18331 6.40237 7.79278 6.7929L6.73212 7.85356C6.3416 8.24408 6.3416 8.87725 6.73212 9.26777C7.12265 9.65829 7.75581 9.65829 8.14634 9.26777L9.207 8.20711Z" fill="#3D74E1"/>
</svg>
