<?xml version="1.0" encoding="UTF-8"?>
<!-- Generator: Adobe Illustrator 22.0.0, SVG Export Plug-In . SVG Version: 6.00 Build 0)  -->
<svg version="1.1" id="图层_1" xmlns="http://www.w3.org/2000/svg" xmlns:xlink="http://www.w3.org/1999/xlink" x="0px" y="0px" viewBox="0 0 28 28" style="enable-background:new 0 0 28 28;" xml:space="preserve"><script xmlns=""/>
<style type="text/css">
	.st0{fill:#fff;}
</style>
<path class="st0" d="M16.9,1l-6.3,11.7c0,0,1.5,0.6,2.9,0.9c1.3,0.3,3,0.6,3,0.6L16.9,1z"/>
<path class="st0" d="M13.2,14.6c2.2,0.6,4.1,0.6,4.2,0.1c0.1-0.5-1.5-1.4-3.7-2c-2.2-0.6-4.1-0.6-4.2-0.1C9.4,13.1,11,14,13.2,14.6z  "/>
<path class="st0" d="M15.5,6.9C7.8,4.9,0.9,5.6,0.1,8.5c-0.8,2.8,4.4,6.6,11.6,8.6c0.2,0.1,0.5,0.1,0.8,0.2l0.1,0l0,0  c7.7,2,14.6,1.2,15.4-1.7C28.7,12.8,23.1,8.9,15.5,6.9z M21.3,15c-0.3,1-2.2,2.1-8.4,0.5C6.8,14,5.7,12,6,11.1  c0.4-1.3,4.1-1.4,8.3-0.3C19,11.9,21.7,13.7,21.3,15z M25.9,14.7c-0.2,0.6-0.7,1-1.4,1.3c0.6-2.3-3.7-5.3-9.7-6.9  c-6-1.5-11.3-1-12,1.3C2.2,9.8,2,9.2,2.2,8.6c0.6-2.1,6.4-2.5,12.9-0.8C21.6,9.5,26.5,12.6,25.9,14.7z"/>
<path class="st0" d="M12.5,19c6,1.6,11.3,1.5,14,0.1c-1.5,2.8-7.6,3.6-14.5,1.9C5,19.1,0,15.4,0.1,12.2C1.7,14.7,6.5,17.4,12.5,19z"/>
<path class="st0" d="M9.2,21.4c0.7,0.3,1.5,0.6,2.3,0.8c0.6,0.1,1.1,0.3,1.6,0.3L9.9,27L9.2,21.4z"/>
</svg>