<svg width="40" height="40" viewBox="0 0 40 40" fill="none" xmlns="http://www.w3.org/2000/svg">
<path d="M37.162 6.08411L31.1976 8.76265C30.8361 8.9623 30.6225 9.34495 30.6225 9.74423V31.339C30.6225 31.7549 30.8526 32.1375 31.2141 32.3205L37.1785 34.9325C37.5564 35.1322 38 34.866 38 34.4334V6.58322C37.9836 6.15066 37.5235 5.88447 37.162 6.08411ZM8.6052 8.72938L2.82154 6.06747C2.44363 5.86783 2 6.13402 2 6.56658V34.4168C2 34.866 2.49293 35.1322 2.8544 34.8993L8.67093 31.7882C8.99954 31.5885 9.19671 31.2225 9.19671 30.8398V9.71096C9.18028 9.31167 8.96668 8.92902 8.6052 8.72938ZM26.7449 16.0995L20.5176 12.4893C20.1725 12.2897 19.7453 12.2897 19.4167 12.4893L13.0744 16.0663C12.7293 16.2659 12.5157 16.6486 12.5157 17.0478V24.3681C12.5157 24.7674 12.7293 25.15 13.0744 25.3497L19.4167 29.0431C19.7618 29.2427 20.189 29.2427 20.5176 29.0431L26.7449 25.3829C27.0899 25.1833 27.3035 24.8006 27.3035 24.4014V17.0811C27.3035 16.6652 27.0899 16.2992 26.7449 16.0995Z" fill="white"/>
</svg>
