<svg width="40" height="40" viewBox="0 0 40 40" fill="none" xmlns="http://www.w3.org/2000/svg">
<path d="M3.71011 5.13433C3.41647 5.23434 3.14712 5.3869 2.91342 5.58079C2.66748 5.7842 2.46904 6.02623 2.32083 6.2918C2.11647 6.65623 2 7.07657 2 7.5241V32.7619C2 33.2592 2.14386 33.7229 2.39226 34.1138C2.49611 34.2777 2.62003 34.4311 2.76338 34.5703C3.21804 35.013 3.83908 35.2857 4.52378 35.2857C4.97863 35.2857 5.40534 35.1653 5.77387 34.9549C6.03609 34.8056 6.2749 34.6072 6.47554 34.3621C6.52141 34.3062 6.56495 34.2483 6.60596 34.1885L12.273 26.1601L9.18387 21.7838L7.04756 24.8102V15.4755L17.6048 30.4316C18.0777 31.1015 18.8467 31.4999 19.6667 31.4999C20.4867 31.4999 21.2556 31.1015 21.7285 30.4316L32.2854 15.476V24.8096L30.1497 21.784L27.0604 26.1603L32.7158 34.1721C32.7999 34.2968 32.895 34.4136 32.9995 34.5211C33.1332 34.6589 33.28 34.7788 33.4366 34.8802C33.8317 35.1367 34.303 35.2857 34.8091 35.2857C35.4316 35.2857 36.0013 35.0604 36.4414 34.6868C36.706 34.463 36.9143 34.1939 37.0628 33.8992C37.1973 33.6332 37.286 33.3402 37.3188 33.0304C37.3301 32.9254 37.3349 32.8196 37.3329 32.7136V7.57199C37.335 7.45829 37.3294 7.34472 37.3163 7.23216C37.2861 6.97057 37.216 6.72116 37.1121 6.49017C36.9342 6.0928 36.6511 5.73638 36.2705 5.46621C36.1515 5.38153 36.0248 5.30689 35.8916 5.24361C35.4802 5.04776 35.0335 4.97224 34.5981 5.00903C34.2562 5.03729 33.9336 5.13376 33.644 5.28475C33.3587 5.43296 33.0983 5.63764 32.8809 5.89576C32.8248 5.96213 32.7721 6.03141 32.723 6.1034L19.6667 24.5997L6.58583 6.06857C6.32191 5.69461 5.97483 5.41422 5.5873 5.23471C5.33107 5.11547 5.05144 5.03799 4.75723 5.01098C4.408 4.97836 4.05089 5.01811 3.71011 5.13433Z" fill="white"/>
<path d="M19.6666 15.6858L21.6543 18.5018L24.7435 14.1253L21.7284 9.85408C21.2555 9.18415 20.4866 8.78571 19.6666 8.78571C18.8466 8.78571 18.0776 9.18415 17.6048 9.85408L14.5898 14.1251L17.6791 18.5015L19.6666 15.6858Z" fill="white"/>
</svg>
