<svg width="315" height="185" viewBox="0 0 315 185" fill="none" xmlns="http://www.w3.org/2000/svg">
<mask id="path-1-inside-1_291_20522" fill="white">
<path d="M16 20C16 8.95431 24.9543 0 36 0H278C289.046 0 298 8.9543 298 20V173H16V20Z"/>
</mask>
<path d="M16 20C16 8.95431 24.9543 0 36 0H278C289.046 0 298 8.9543 298 20V173H16V20Z" fill="white" fill-opacity="0.24"/>
<path d="M10 20C10 5.6406 21.6406 -6 36 -6H278C292.359 -6 304 5.6406 304 20H292C292 12.268 285.732 6 278 6H36C28.268 6 22 12.268 22 20H10ZM298 173H16H298ZM10 173V20C10 5.6406 21.6406 -6 36 -6V6C28.268 6 22 12.268 22 20V173H10ZM278 -6C292.359 -6 304 5.6406 304 20V173H292V20C292 12.268 285.732 6 278 6V-6Z" fill="url(#paint0_linear_291_20522)" mask="url(#path-1-inside-1_291_20522)"/>
<path d="M0 175C0 173.895 0.895431 173 2 173H313C314.105 173 315 173.895 315 175C315 180.523 310.523 185 305 185H10C4.47715 185 0 180.523 0 175Z" fill="white"/>
<rect x="129" y="69" width="99" height="70" rx="8" fill="white" fill-opacity="0.6"/>
<g filter="url(#filter0_d_291_20522)">
<rect x="170" y="41" width="86" height="59" rx="8" fill="white" fill-opacity="0.8" shape-rendering="crispEdges"/>
</g>
<path opacity="0.6" d="M129 77C129 72.5817 132.582 69 137 69H154V139H137C132.582 139 129 135.418 129 131V77Z" fill="white"/>
<defs>
<filter id="filter0_d_291_20522" x="122" y="25" width="150" height="123" filterUnits="userSpaceOnUse" color-interpolation-filters="sRGB">
<feFlood flood-opacity="0" result="BackgroundImageFix"/>
<feColorMatrix in="SourceAlpha" type="matrix" values="0 0 0 0 0 0 0 0 0 0 0 0 0 0 0 0 0 0 127 0" result="hardAlpha"/>
<feOffset dx="-16" dy="16"/>
<feGaussianBlur stdDeviation="16"/>
<feComposite in2="hardAlpha" operator="out"/>
<feColorMatrix type="matrix" values="0 0 0 0 0.0552083 0 0 0 0 0.35348 0 0 0 0 0.6625 0 0 0 0.16 0"/>
<feBlend mode="multiply" in2="BackgroundImageFix" result="effect1_dropShadow_291_20522"/>
<feBlend mode="normal" in="SourceGraphic" in2="effect1_dropShadow_291_20522" result="shape"/>
</filter>
<linearGradient id="paint0_linear_291_20522" x1="157" y1="0" x2="157" y2="173" gradientUnits="userSpaceOnUse">
<stop stop-color="white"/>
<stop offset="0.927028" stop-color="white"/>
<stop offset="1" stop-color="white" stop-opacity="0.71"/>
</linearGradient>
</defs>
</svg>
